<svg xmlns="http://www.w3.org/2000/svg" width="667" height="451" viewBox="0 0 667 451">
  <g id="Group_37" data-name="Group 37" transform="translate(-111.73 -113.117)">
    <g id="modal" transform="translate(111.73 285.117)">
      <rect id="Rectangle_244" data-name="Rectangle 244" width="100" height="100" rx="18" transform="translate(0)" fill="#00b1ff"/>
    </g>
    <g id="question_modal" data-name="question modal" transform="translate(344.965 264.617)">
      <rect id="Rectangle_244-2" data-name="Rectangle 244" width="99.933" height="99.933" rx="18" transform="translate(70.663 0) rotate(45)" fill="#00b1ff"/>
    </g>
    <g id="Group_35" data-name="Group 35" transform="translate(365.662 464.302)">
      <g id="modal-2" data-name="modal" transform="translate(0.068 -0.185)">
        <rect id="Rectangle_244-3" data-name="Rectangle 244" width="100" height="100" rx="18" transform="translate(0)" fill="#00b1ff"/>
      </g>
      <text id="Fill_out_the_form_for_that_category" data-name="Fill out the form for that category" transform="translate(5.068 26.815)" fill="#fff" font-size="10" font-family="Lato-Medium, Lato" font-weight="500"><tspan x="2.462" y="10">Fill out the form for </tspan><tspan x="16.215" y="22">that category</tspan></text>
    </g>
    <text id="Do_you_have_any_training_or_recognition_in_the_category_" data-name="Do you have any training or recognition
in the category?" transform="translate(365.73 312.117)" fill="#fff" font-size="10" font-family="Lato-Medium, Lato" font-weight="500"><tspan x="13.33" y="10">Do you have any </tspan><tspan x="1.217" y="24">training or recognition</tspan><tspan x="14.813" y="38">in the category?</tspan></text>
    <g id="Group_34" data-name="Group 34" transform="translate(365.662 113)">
      <g id="modal-3" data-name="modal" transform="translate(0.068 0.117)">
        <rect id="Rectangle_244-4" data-name="Rectangle 244" width="100" height="100" rx="18" transform="translate(0)" fill="#00b1ff"/>
      </g>
      <text id="Skip_to_the_next_category" data-name="Skip to the next
category" transform="translate(50.068 47.117)" fill="#fff" font-size="10" font-family="Lato-Medium, Lato" font-weight="500"><tspan x="-34.703" y="0">Skip to the next</tspan><tspan x="-19.14" y="14">category</tspan></text>
    </g>
    <g id="Group_36" data-name="Group 36" transform="translate(678.528 285.192)">
      <g id="modal-4" data-name="modal" transform="translate(0.202 -0.074)">
        <rect id="Rectangle_244-5" data-name="Rectangle 244" width="100" height="100" rx="18" transform="translate(0)" fill="#00b1ff"/>
      </g>
      <text id="Get_CAQ_score" data-name="Get CAQ score" transform="translate(50.202 47.926)" fill="#fff" font-size="10" font-family="Lato-Medium, Lato" font-weight="500"><tspan x="-32.985" y="0">Get CAQ score</tspan></text>
    </g>
    <g id="arrow_w_label" data-name="arrow w/label" transform="translate(392.314 271.97) rotate(-90)">
      <line id="Line_12" data-name="Line 12" x2="53.25" transform="translate(0 23.5)" fill="none" stroke="#707070" stroke-width="2"/>
      <g id="Polygon_4" data-name="Polygon 4" transform="translate(60 19.933) rotate(90)" fill="#707070">
        <path d="M 6.190985202789307 6.5 L 0.8090149760246277 6.5 L 3.5 1.118029952049255 L 6.190985202789307 6.5 Z" stroke="none"/>
        <path d="M 3.5 2.236070156097412 L 1.618034839630127 6 L 5.381965160369873 6 L 3.5 2.236070156097412 M 3.5 0 L 7 7 L 0 7 L 3.5 0 Z" stroke="none" fill="#707070"/>
      </g>
      <g id="Rectangle_246" data-name="Rectangle 246" transform="translate(17.206)" fill="#84d5f8" stroke="#00b1ff" stroke-width="2">
        <rect width="22" height="48" rx="7" stroke="none"/>
        <rect x="1" y="1" width="20" height="46" rx="6" fill="none"/>
      </g>
    </g>
    <g id="arrow_w_label-2" data-name="arrow w/label" transform="translate(480.584 318.982)">
      <line id="Line_12-2" data-name="Line 12" x2="192.563" transform="translate(0 15.791)" fill="none" stroke="#707070" stroke-width="2"/>
      <g id="Polygon_4-2" data-name="Polygon 4" transform="translate(197.751 13.049) rotate(90)" fill="#707070">
        <path d="M 4.571969509124756 4.880984306335449 L 0.8090195655822754 4.880984306335449 L 2.690494537353516 1.118034482002258 L 4.571969509124756 4.880984306335449 Z" stroke="none"/>
        <path d="M 2.690494537353516 2.236074447631836 L 1.618039608001709 4.380984306335449 L 3.762949466705322 4.380984306335449 L 2.690494537353516 2.236074447631836 M 2.690494537353516 4.76837158203125e-06 L 5.380984306335449 5.380984306335449 L 4.76837158203125e-06 5.380984306335449 L 2.690494537353516 4.76837158203125e-06 Z" stroke="none" fill="#707070"/>
      </g>
      <path id="Path_199" data-name="Path 199" d="M12.611,0h93.681C113.257,0,118.9,3.714,118.9,8.3V22.518c0,4.582-5.646,8.3-12.611,8.3H12.611C5.646,30.814,0,27.1,0,22.518V8.3C0,3.714,5.646,0,12.611,0Z" transform="translate(29.631)" fill="#30bf51"/>
    </g>
    <text id="No" transform="translate(415.73 248.117)" fill="#fff" font-size="11" font-family="Lato-Medium, Lato" font-weight="500"><tspan x="-7.254" y="0">No</tspan></text>
    <g id="arrow" transform="translate(0 -12.919)">
      <line id="Line_12-3" data-name="Line 12" x2="59.544" transform="translate(415.481 411.114) rotate(90)" fill="none" stroke="#707070" stroke-width="2"/>
      <g id="Polygon_4-3" data-name="Polygon 4" transform="translate(419.048 477.408) rotate(-180)" fill="#707070">
        <path d="M 6.190985202789307 6.5 L 0.8090149760246277 6.5 L 3.5 1.118029952049255 L 6.190985202789307 6.5 Z" stroke="none"/>
        <path d="M 3.5 2.236070156097412 L 1.618034839630127 6 L 5.381965160369873 6 L 3.5 2.236070156097412 M 3.5 0 L 7 7 L 0 7 L 3.5 0 Z" stroke="none" fill="#707070"/>
      </g>
      <g id="Rectangle_248" data-name="Rectangle 248" transform="translate(392.314 453.764) rotate(-90)" fill="#84d5f8" stroke="#00b1ff" stroke-width="2">
        <rect width="22" height="48" rx="7" stroke="none"/>
        <rect x="1" y="1" width="20" height="46" rx="6" fill="none"/>
      </g>
    </g>
    <g id="arrow-2" data-name="arrow" transform="translate(211.933 332.852)">
      <line id="Line_12-4" data-name="Line 12" x2="133.593" transform="translate(0 2.742)" fill="none" stroke="#707070" stroke-width="2"/>
      <path id="Polygon_3" data-name="Polygon 3" d="M2.69,0l2.69,5.381H0Z" transform="translate(138.782) rotate(90)" fill="#707070"/>
    </g>
    <g id="Round_arrow" data-name="Round arrow" transform="translate(350.487 145.793)">
      <path id="Path_200" data-name="Path 200" d="M1946.072,1607h-12.393v156.047h16.886" transform="translate(-1933.679 -1607)" fill="none" stroke="#707070" stroke-linejoin="round" stroke-width="2"/>
      <g id="Polygon_5" data-name="Polygon 5" transform="translate(21.945 153.331) rotate(90)" fill="#707070">
        <path d="M 4.571969509124756 4.880984306335449 L 0.8090195655822754 4.880984306335449 L 2.690494537353516 1.118034482002258 L 4.571969509124756 4.880984306335449 Z" stroke="none"/>
        <path d="M 2.690494537353516 2.236074447631836 L 1.618039608001709 4.380984306335449 L 3.762949466705322 4.380984306335449 L 2.690494537353516 2.236074447631836 M 2.690494537353516 4.76837158203125e-06 L 5.380984306335449 5.380984306335449 L 4.76837158203125e-06 5.380984306335449 L 2.690494537353516 4.76837158203125e-06 Z" stroke="none" fill="#707070"/>
      </g>
    </g>
    <g id="Round_arrow-2" data-name="Round arrow" transform="translate(350.487 363.696)">
      <path id="Path_200-2" data-name="Path 200" d="M1946.072,1739.582h-12.393V1607h16.886" transform="translate(-1933.679 -1604.284)" fill="none" stroke="#707070" stroke-linejoin="round" stroke-width="2"/>
      <g id="Polygon_5-2" data-name="Polygon 5" transform="translate(21.945) rotate(90)" fill="#707070">
        <path d="M 4.571969509124756 4.880984306335449 L 0.8090195655822754 4.880984306335449 L 2.690494537353516 1.118034482002258 L 4.571969509124756 4.880984306335449 Z" stroke="none"/>
        <path d="M 2.690494537353516 2.236074447631836 L 1.618039608001709 4.380984306335449 L 3.762949466705322 4.380984306335449 L 2.690494537353516 2.236074447631836 M 2.690494537353516 4.76837158203125e-06 L 5.380984306335449 5.380984306335449 L 4.76837158203125e-06 5.380984306335449 L 2.690494537353516 4.76837158203125e-06 Z" stroke="none" fill="#707070"/>
      </g>
    </g>
    <text id="Yes" transform="translate(415.73 433.117)" fill="#fff" font-size="11" font-family="Lato-Medium, Lato" font-weight="500"><tspan x="-8.159" y="0">Yes</tspan></text>
    <text id="Finished_all_sections_" data-name="Finished all sections?" transform="translate(570.73 338.117)" fill="#fff" font-size="10" font-family="Lato-Medium, Lato" font-weight="500"><tspan x="-46.22" y="0">Finished all sections?</tspan></text>
    <text id="There_are_10_domains_that_the_user_has_to_go_through" data-name="There are 10 domains that the user has to go through" transform="translate(119.73 301.117)" fill="#fff" font-size="10" font-family="Lato-Medium, Lato" font-weight="500"><tspan x="12.54" y="10">There are 10 </tspan><tspan x="3.365" y="24">domains that the </tspan><tspan x="9.847" y="38">user has to go </tspan><tspan x="23.108" y="52">through</tspan></text>
  </g>
</svg>
