<svg xmlns="http://www.w3.org/2000/svg" xmlns:xlink="http://www.w3.org/1999/xlink" width="1355" height="780" viewBox="0 0 1355 780">
  <defs>
    <filter id="Rectangle_242" x="35" y="-5" width="1285" height="791" filterUnits="userSpaceOnUse">
      <feOffset dy="3" input="SourceAlpha"/>
      <feGaussianBlur stdDeviation="25" result="blur"/>
      <feFlood flood-opacity="0.161"/>
      <feComposite operator="in" in2="blur"/>
      <feComposite in="SourceGraphic"/>
    </filter>
    <clipPath id="clip-path">
      <rect width="445" height="39" fill="none"/>
    </clipPath>
    <clipPath id="clip-path-2">
      <rect width="591" height="88" fill="none"/>
    </clipPath>
    <linearGradient id="linear-gradient" x1="0.5" x2="0.5" y2="1" gradientUnits="objectBoundingBox">
      <stop offset="0" stop-color="#ecebec"/>
      <stop offset="1" stop-color="#d4d3d4"/>
    </linearGradient>
    <clipPath id="clip-preview">
      <rect width="1355" height="780"/>
    </clipPath>
  </defs>
  <g id="preview" clip-path="url(#clip-preview)">
    <rect width="1355" height="780" fill="#e3ddfc"/>
    <g id="Group_1" data-name="Group 1" transform="translate(32.537 22.198)">
      <g transform="matrix(1, 0, 0, 1, -32.54, -22.2)" filter="url(#Rectangle_242)">
        <rect id="Rectangle_242-2" data-name="Rectangle 242" width="1135" height="641" transform="translate(110 67)" fill="#182955"/>
      </g>
      <rect id="Rectangle_5" data-name="Rectangle 5" width="1135" height="175" transform="translate(77.463 510.802)" fill="rgba(149,217,175,0.9)"/>
      <text id="What_interval_do_you_think_this_is_" data-name="What interval do you think this is?" transform="translate(637.011 284.849)" fill="#fff" font-size="33" font-family="AvenirNext-DemiBold, Avenir Next" font-weight="300"><tspan x="-256.74" y="0">What interval do you think this is?</tspan></text>
      <g id="Speaker" transform="translate(588.478 112.871)">
        <path id="volume-up-solid" d="M20.118,21.094l-8.324,8.238H2.245A2.234,2.234,0,0,0,0,31.555V44.891a2.234,2.234,0,0,0,2.245,2.223h9.549l8.324,8.238a2.25,2.25,0,0,0,3.833-1.572V22.666A2.25,2.25,0,0,0,20.118,21.094Zm21.829-4.731a2.277,2.277,0,0,0-3.135.644,2.227,2.227,0,0,0,.65,3.1,21.52,21.52,0,0,1,0,36.227,2.226,2.226,0,0,0-.65,3.1,2.281,2.281,0,0,0,3.135.644,25.978,25.978,0,0,0,0-43.72Zm2.961,21.86a17.059,17.059,0,0,0-8.024-14.47,2.24,2.24,0,1,0-2.405,3.78,12.589,12.589,0,0,1,0,21.379,2.24,2.24,0,1,0,2.405,3.78A17.058,17.058,0,0,0,44.908,38.223ZM31.644,31.1a2.265,2.265,0,0,0-3.051.875A2.213,2.213,0,0,0,29.477,35a3.633,3.633,0,0,1,0,6.448,2.213,2.213,0,0,0-.884,3.02,2.26,2.26,0,0,0,3.051.875,8.059,8.059,0,0,0,0-14.238Z" transform="translate(32.145 18.04)" fill="#fff"/>
        <g id="Rectangle_2" data-name="Rectangle 2" transform="translate(-0.015 -0.069)" fill="none" stroke="#fff" stroke-width="2">
          <rect width="113" height="114" rx="9" stroke="none"/>
          <rect x="1" y="1" width="111" height="112" rx="8" fill="none"/>
        </g>
      </g>
      <g id="Possible_Choices" data-name="Possible Choices" transform="translate(369.138 316.138)">
        <g id="Repeat_Grid_2" data-name="Repeat Grid 2" transform="translate(72.325 96.664)" clip-path="url(#clip-path)">
          <g transform="translate(-321 -320)">
            <g id="Answer_button" data-name="Answer button" transform="translate(321 320)">
              <g id="Rectangle_1" data-name="Rectangle 1" fill="none" stroke="#75ac98" stroke-width="2">
                <rect width="136" height="36" rx="9" stroke="none"/>
                <rect x="1" y="1" width="134" height="34" rx="8" fill="none"/>
              </g>
              <text id="m7" transform="translate(68 23)" fill="#75ac98" font-size="15" font-family="AvenirNext-Medium, Avenir Next" font-weight="500"><tspan x="-11.115" y="0">m7</tspan></text>
            </g>
          </g>
          <g transform="translate(-171 -320)">
            <g id="Answer_button-2" data-name="Answer button" transform="translate(321 320)">
              <g id="Rectangle_1-2" data-name="Rectangle 1" fill="none" stroke="rgba(255,255,255,0.65)" stroke-width="2">
                <rect width="136" height="36" rx="9" stroke="none"/>
                <rect x="1" y="1" width="134" height="34" rx="8" fill="none"/>
              </g>
              <text id="M7-2" data-name="M7" transform="translate(68 23)" fill="rgba(255,255,255,0.75)" font-size="15" font-family="AvenirNext-Medium, Avenir Next" font-weight="500"><tspan x="-11.235" y="0">M7</tspan></text>
            </g>
          </g>
          <g transform="translate(-21 -320)">
            <g id="Answer_button-3" data-name="Answer button" transform="translate(321 320)">
              <g id="Rectangle_1-3" data-name="Rectangle 1" fill="none" stroke="rgba(255,255,255,0.65)" stroke-width="2">
                <rect width="136" height="36" rx="9" stroke="none"/>
                <rect x="1" y="1" width="134" height="34" rx="8" fill="none"/>
              </g>
              <text id="P8" transform="translate(68 23)" fill="rgba(255,255,255,0.75)" font-size="15" font-family="AvenirNext-Medium, Avenir Next" font-weight="500"><tspan x="-8.925" y="0">P8</tspan></text>
            </g>
          </g>
        </g>
        <g id="Repeat_Grid_1" data-name="Repeat Grid 1" transform="translate(0.325 -0.336)" clip-path="url(#clip-path-2)">
          <g transform="translate(-321 -320)">
            <g id="Answer_button-4" data-name="Answer button" transform="translate(321 320)">
              <g id="Rectangle_1-4" data-name="Rectangle 1" fill="none" stroke="rgba(255,255,255,0.65)" stroke-width="2">
                <rect width="136" height="36" rx="9" stroke="none"/>
                <rect x="1" y="1" width="134" height="34" rx="8" fill="none"/>
              </g>
              <text id="M2" transform="translate(68 23)" fill="rgba(255,255,255,0.75)" font-size="15" font-family="AvenirNext-Medium, Avenir Next" font-weight="500"><tspan x="-11.235" y="0">M2</tspan></text>
            </g>
          </g>
          <g transform="translate(-171 -320)">
            <g id="Answer_button-5" data-name="Answer button" transform="translate(321 320)">
              <g id="Rectangle_1-5" data-name="Rectangle 1" fill="none" stroke="rgba(255,255,255,0.65)" stroke-width="2">
                <rect width="136" height="36" rx="9" stroke="none"/>
                <rect x="1" y="1" width="134" height="34" rx="8" fill="none"/>
              </g>
              <text id="M2-2" data-name="M2" transform="translate(68 23)" fill="rgba(255,255,255,0.75)" font-size="15" font-family="AvenirNext-Medium, Avenir Next" font-weight="500"><tspan x="-11.235" y="0">M2</tspan></text>
            </g>
          </g>
          <g transform="translate(-21 -320)">
            <g id="Answer_button-6" data-name="Answer button" transform="translate(321 320)">
              <g id="Rectangle_1-6" data-name="Rectangle 1" fill="none" stroke="rgba(255,255,255,0.65)" stroke-width="2">
                <rect width="136" height="36" rx="9" stroke="none"/>
                <rect x="1" y="1" width="134" height="34" rx="8" fill="none"/>
              </g>
              <text id="M2-3" data-name="M2" transform="translate(68 23)" fill="rgba(255,255,255,0.75)" font-size="15" font-family="AvenirNext-Medium, Avenir Next" font-weight="500"><tspan x="-11.235" y="0">M2</tspan></text>
            </g>
          </g>
          <g transform="translate(129 -320)">
            <g id="Answer_button-7" data-name="Answer button" transform="translate(321 320)">
              <g id="Rectangle_1-7" data-name="Rectangle 1" fill="none" stroke="rgba(255,255,255,0.65)" stroke-width="2">
                <rect width="136" height="36" rx="9" stroke="none"/>
                <rect x="1" y="1" width="134" height="34" rx="8" fill="none"/>
              </g>
              <text id="M2-4" data-name="M2" transform="translate(68 23)" fill="rgba(255,255,255,0.75)" font-size="15" font-family="AvenirNext-Medium, Avenir Next" font-weight="500"><tspan x="-11.235" y="0">M2</tspan></text>
            </g>
          </g>
          <g transform="translate(-321 -269)">
            <g id="Answer_button-8" data-name="Answer button" transform="translate(321 320)">
              <g id="Rectangle_1-8" data-name="Rectangle 1" fill="none" stroke="rgba(255,255,255,0.65)" stroke-width="2">
                <rect width="136" height="36" rx="9" stroke="none"/>
                <rect x="1" y="1" width="134" height="34" rx="8" fill="none"/>
              </g>
              <text id="M2-5" data-name="M2" transform="translate(68 23)" fill="rgba(255,255,255,0.75)" font-size="15" font-family="AvenirNext-Medium, Avenir Next" font-weight="500"><tspan x="-11.235" y="0">M2</tspan></text>
            </g>
          </g>
          <g transform="translate(-171 -269)">
            <g id="Answer_button-9" data-name="Answer button" transform="translate(321 320)">
              <g id="Rectangle_1-9" data-name="Rectangle 1" fill="none" stroke="rgba(255,255,255,0.65)" stroke-width="2">
                <rect width="136" height="36" rx="9" stroke="none"/>
                <rect x="1" y="1" width="134" height="34" rx="8" fill="none"/>
              </g>
              <text id="M2-6" data-name="M2" transform="translate(68 23)" fill="rgba(255,255,255,0.75)" font-size="15" font-family="AvenirNext-Medium, Avenir Next" font-weight="500"><tspan x="-11.235" y="0">M2</tspan></text>
            </g>
          </g>
          <g transform="translate(-21 -269)">
            <g id="Answer_button-10" data-name="Answer button" transform="translate(321 320)">
              <g id="Rectangle_1-10" data-name="Rectangle 1" fill="none" stroke="rgba(255,255,255,0.65)" stroke-width="2">
                <rect width="136" height="36" rx="9" stroke="none"/>
                <rect x="1" y="1" width="134" height="34" rx="8" fill="none"/>
              </g>
              <text id="M2-7" data-name="M2" transform="translate(68 23)" fill="rgba(255,255,255,0.75)" font-size="15" font-family="AvenirNext-Medium, Avenir Next" font-weight="500"><tspan x="-11.235" y="0">M2</tspan></text>
            </g>
          </g>
          <g transform="translate(129 -269)">
            <g id="Answer_button-11" data-name="Answer button" transform="translate(321 320)">
              <g id="Rectangle_1-11" data-name="Rectangle 1" fill="none" stroke="rgba(255,255,255,0.65)" stroke-width="2">
                <rect width="136" height="36" rx="9" stroke="none"/>
                <rect x="1" y="1" width="134" height="34" rx="8" fill="none"/>
              </g>
              <text id="M2-8" data-name="M2" transform="translate(68 23)" fill="rgba(255,255,255,0.75)" font-size="15" font-family="AvenirNext-Medium, Avenir Next" font-weight="500"><tspan x="-11.235" y="0">M2</tspan></text>
            </g>
          </g>
        </g>
      </g>
      <g id="Component_2_1" data-name="Component 2 – 1" transform="translate(905.463 582.802)">
        <g id="Rectangle_4" data-name="Rectangle 4" transform="translate(0)" fill="none" stroke="#fff" stroke-width="2">
          <rect width="124" height="35" rx="9" stroke="none"/>
          <rect x="1" y="1" width="122" height="33" rx="8" fill="none"/>
        </g>
        <text id="Next" transform="translate(62 23)" fill="#fff" font-size="15" font-family="AvenirNext-Medium, Avenir Next" font-weight="500"><tspan x="-16.313" y="0">Next</tspan></text>
      </g>
      <path id="Path_2" data-name="Path 2" d="M0,0H768.324" transform="translate(260.725 69.853)" fill="none" stroke="rgba(255,255,255,0.47)" stroke-width="2"/>
      <path id="check-circle-solid" d="M26.324,17.162A9.162,9.162,0,1,1,17.162,8,9.162,9.162,0,0,1,26.324,17.162ZM16.1,22.013l6.8-6.8a.591.591,0,0,0,0-.836l-.836-.836a.591.591,0,0,0-.836,0l-5.544,5.544L13.1,16.5a.591.591,0,0,0-.836,0l-.836.836a.591.591,0,0,0,0,.836l3.842,3.842a.591.591,0,0,0,.836,0Z" transform="translate(252.744 589.478)" fill="#fff"/>
      <text id="That_s_correct._Nice_job_" data-name="That’s correct. Nice job!" transform="translate(287.463 612.802)" fill="#fff" font-size="15" font-family="AvenirNext-Medium, Avenir Next" font-weight="500"><tspan x="0" y="0">That’s correct. Nice job!</tspan></text>
      <g id="Title_bar" data-name="Title bar" transform="translate(77.463 23.802)">
        <path id="Rectangle_210" data-name="Rectangle 210" d="M4,0H1131a4,4,0,0,1,4,4V21a0,0,0,0,1,0,0H0a0,0,0,0,1,0,0V4A4,4,0,0,1,4,0Z" transform="translate(0)" fill="url(#linear-gradient)"/>
        <g id="Path_46" data-name="Path 46" transform="translate(-17.984 199.516)" fill="#989898">
          <path d="M28.1-184.807a4.6,4.6,0,0,0,4.6-4.6,4.6,4.6,0,0,0-4.6-4.6,4.6,4.6,0,0,0-4.6,4.6A4.6,4.6,0,0,0,28.1-184.807Z" stroke="none"/>
          <path d="M 28.09659576416016 -185.3067626953125 C 30.35546493530273 -185.3067626953125 32.19319534301758 -187.1444854736328 32.19319534301758 -189.4033660888672 C 32.19319534301758 -191.6622314453125 30.35546493530273 -193.4999542236328 28.09659576416016 -193.4999542236328 C 25.83772659301758 -193.4999542236328 23.99999618530273 -191.6622314453125 23.99999618530273 -189.4033660888672 C 23.99999618530273 -187.1444854736328 25.83772659301758 -185.3067626953125 28.09659576416016 -185.3067626953125 M 28.09659576416016 -184.8067626953125 C 25.5579662322998 -184.8067626953125 23.49999618530273 -186.8647613525391 23.49999618530273 -189.4033660888672 C 23.49999618530273 -191.9419860839844 25.5579662322998 -193.9999542236328 28.09659576416016 -193.9999542236328 C 30.63522529602051 -193.9999542236328 32.69319534301758 -191.9419860839844 32.69319534301758 -189.4033660888672 C 32.69319534301758 -186.8647613525391 30.63522529602051 -184.8067626953125 28.09659576416016 -184.8067626953125 Z" stroke="none" fill="rgba(0,0,0,0.15)"/>
        </g>
        <g id="Path_47" data-name="Path 47" transform="translate(-3.275 199.516)" fill="#989898">
          <path d="M28.1-184.807a4.6,4.6,0,0,0,4.6-4.6,4.6,4.6,0,0,0-4.6-4.6,4.6,4.6,0,0,0-4.6,4.6A4.6,4.6,0,0,0,28.1-184.807Z" stroke="none"/>
          <path d="M 28.09659576416016 -185.3067626953125 C 30.35546493530273 -185.3067626953125 32.19319534301758 -187.1444854736328 32.19319534301758 -189.4033660888672 C 32.19319534301758 -191.6622314453125 30.35546493530273 -193.4999542236328 28.09659576416016 -193.4999542236328 C 25.83772659301758 -193.4999542236328 23.99999618530273 -191.6622314453125 23.99999618530273 -189.4033660888672 C 23.99999618530273 -187.1444854736328 25.83772659301758 -185.3067626953125 28.09659576416016 -185.3067626953125 M 28.09659576416016 -184.8067626953125 C 25.5579662322998 -184.8067626953125 23.49999618530273 -186.8647613525391 23.49999618530273 -189.4033660888672 C 23.49999618530273 -191.9419860839844 25.5579662322998 -193.9999542236328 28.09659576416016 -193.9999542236328 C 30.63522529602051 -193.9999542236328 32.69319534301758 -191.9419860839844 32.69319534301758 -189.4033660888672 C 32.69319534301758 -186.8647613525391 30.63522529602051 -184.8067626953125 28.09659576416016 -184.8067626953125 Z" stroke="none" fill="rgba(0,0,0,0.15)"/>
        </g>
        <g id="Path_48" data-name="Path 48" transform="translate(11.434 199.516)" fill="#989898">
          <path d="M28.1-184.807a4.6,4.6,0,0,0,4.6-4.6,4.6,4.6,0,0,0-4.6-4.6,4.6,4.6,0,0,0-4.6,4.6A4.6,4.6,0,0,0,28.1-184.807Z" stroke="none"/>
          <path d="M 28.09659576416016 -185.3067626953125 C 30.35546493530273 -185.3067626953125 32.19319534301758 -187.1444854736328 32.19319534301758 -189.4033660888672 C 32.19319534301758 -191.6622314453125 30.35546493530273 -193.4999542236328 28.09659576416016 -193.4999542236328 C 25.83772659301758 -193.4999542236328 23.99999618530273 -191.6622314453125 23.99999618530273 -189.4033660888672 C 23.99999618530273 -187.1444854736328 25.83772659301758 -185.3067626953125 28.09659576416016 -185.3067626953125 M 28.09659576416016 -184.8067626953125 C 25.5579662322998 -184.8067626953125 23.49999618530273 -186.8647613525391 23.49999618530273 -189.4033660888672 C 23.49999618530273 -191.9419860839844 25.5579662322998 -193.9999542236328 28.09659576416016 -193.9999542236328 C 30.63522529602051 -193.9999542236328 32.69319534301758 -191.9419860839844 32.69319534301758 -189.4033660888672 C 32.69319534301758 -186.8647613525391 30.63522529602051 -184.8067626953125 28.09659576416016 -184.8067626953125 Z" stroke="none" fill="rgba(0,0,0,0.15)"/>
        </g>
        <rect id="Rectangle_241" data-name="Rectangle 241" width="1135" height="1" transform="translate(0 20)" opacity="0.06"/>
      </g>
    </g>
  </g>
</svg>
