<svg xmlns="http://www.w3.org/2000/svg" xmlns:xlink="http://www.w3.org/1999/xlink" width="1000" height="1000" viewBox="0 0 1000 1000">
  <defs>
    <clipPath id="clip-parrot">
      <rect width="1000" height="1000"/>
    </clipPath>
  </defs>
  <g id="parrot" clip-path="url(#clip-parrot)">
    <rect width="1000" height="1000" fill="#fad46b"/>
    <g id="Page-1" transform="translate(198.003 186.601)">
      <g id="_017---Pirate-Parrot" data-name="017---Pirate-Parrot" transform="translate(-0.003 0.019)">
        <path id="Shape" d="M66.961,148.3a9.693,9.693,0,0,1-9.393-7.338L37.26,59.929a9.693,9.693,0,1,1,18.8-4.721l20.356,81.046a9.693,9.693,0,0,1-7.047,11.758,9.935,9.935,0,0,1-2.4.291Z" transform="translate(311.109 413.726)" fill="#efc319"/>
        <path id="Shape-2" data-name="Shape" d="M40.707,139.355a9.383,9.383,0,0,1-2.355-.291,9.693,9.693,0,0,1-7.066-11.748L49.1,55.993a9.7,9.7,0,1,1,18.824,4.7L50.12,132.037a9.693,9.693,0,0,1-9.412,7.318Z" transform="translate(259.816 422.673)" fill="#efc319"/>
        <path id="Shape-3" data-name="Shape" d="M123.195,54.683,180.386,28.22A135.707,135.707,0,0,1,28.2,240.8Z" transform="translate(235.488 245.141)" fill="#f8e9af"/>
        <path id="Shape-4" data-name="Shape" d="M49.693,139.572a9.693,9.693,0,0,1-7.755-15.509A87.386,87.386,0,0,0,55.413,45.6a9.694,9.694,0,1,1,18.495-5.816,106.8,106.8,0,0,1-16.479,95.906,9.693,9.693,0,0,1-7.735,3.877Z" transform="translate(338.07 286.692)" fill="#e3bf5c"/>
        <path id="Shape-5" data-name="Shape" d="M359.68,45.381V88.516a155.016,155.016,0,0,1-94.995,142.977h-.1c-3.877,1.648-7.852,3.2-11.826,4.459L36.5,306.714a19.716,19.716,0,0,1-24.718-12.892,6.272,6.272,0,0,1-.388-1.26,21.325,21.325,0,0,1-.582-4.847,19.687,19.687,0,0,1,14.055-18.9v-.194a15.867,15.867,0,0,1-3.683.388,20.162,20.162,0,0,1-6.2-39.355s147.048-42.36,188.148-108.663l18.514-30.146a144.508,144.508,0,0,1,58.839-53.8L295.8,29.29h.1Z" transform="translate(-0.997 254.443)" fill="#bf3a2b"/>
        <path id="Shape-6" data-name="Shape" d="M103.112,70.055,2.979,105.338a6.272,6.272,0,0,1-.388-1.26,21.326,21.326,0,0,1-.582-4.847,19.687,19.687,0,0,1,14.055-18.9v-.1l80.649-28.4a9.693,9.693,0,1,1,6.4,18.224Z" transform="translate(7.809 442.926)" fill="#802f34"/>
        <path id="Shape-7" data-name="Shape" d="M25.892,179.563a9.693,9.693,0,0,1-4.944-18.03c35.5-21.015,60.68-43.261,74.862-66.138l18.514-30.137a114.623,114.623,0,0,1,25.261-28.906,9.693,9.693,0,1,1,12.262,15.005A95.731,95.731,0,0,0,130.842,75.4L112.3,105.573c-15.849,25.59-43.261,50.018-81.473,72.632a9.694,9.694,0,0,1-4.934,1.357Z" transform="translate(131.17 295.226)" fill="#e54c3c"/>
        <path id="Shape-8" data-name="Shape" d="M35.7,159.561a9.693,9.693,0,0,1-4.023-18.514A106.675,106.675,0,0,0,93.858,44.093a9.693,9.693,0,1,1,19.387,0A126.072,126.072,0,0,1,39.662,158.688,9.693,9.693,0,0,1,35.7,159.561Z" transform="translate(216.359 298.866)" fill="#e54c3c"/>
        <path id="Shape-9" data-name="Shape" d="M123.249,85.08a9.558,9.558,0,0,1-3.877-.834,128.923,128.923,0,0,0-44.589-8.86,76.743,76.743,0,0,0-24.805,8.724,9.711,9.711,0,1,1-8.53-17.448A83.731,83.731,0,0,1,74.782,56a146.642,146.642,0,0,1,52.393,10.527,9.693,9.693,0,0,1-3.926,18.553Z" transform="translate(303.288 486.642)" fill="#f19b1f"/>
        <path id="Shape-10" data-name="Shape" d="M115.249,85.08a9.558,9.558,0,0,1-3.877-.834,128.922,128.922,0,0,0-44.589-8.86,76.743,76.743,0,0,0-24.805,8.724,9.711,9.711,0,1,1-8.53-17.448A83.731,83.731,0,0,1,66.782,56a146.641,146.641,0,0,1,52.393,10.527,9.693,9.693,0,0,1-3.926,18.553Z" transform="translate(233.741 486.642)" fill="#f19b1f"/>
        <path id="Shape-11" data-name="Shape" d="M90.809,157.447a18.417,18.417,0,0,1-11.632-.775L33.618,138.254a20.356,20.356,0,0,1-11.535-12.407A20.046,20.046,0,0,1,24.312,108.3l20.841-31.31a25.105,25.105,0,0,1-1.26-5.331v-.194a31.019,31.019,0,0,1,6.4-24.912q1.745-2.181,4.071-4.653a138.334,138.334,0,0,1,56.9-33.054A135.891,135.891,0,0,1,176.5,1.093,48.952,48.952,0,0,1,182.6,2.257a31.339,31.339,0,0,1,20.259,16.479,41.173,41.173,0,0,1,2.036,4.75l35.575,12.5a19.891,19.891,0,0,1,12.311,12.6,20.114,20.114,0,0,1-1.745,16.866L224.286,107.72a19.387,19.387,0,0,1-8.53,7.27Z" transform="translate(172.88 -0.019)" fill="#464f5d"/>
        <path id="Shape-12" data-name="Shape" d="M45.5,68.51a10.808,10.808,0,0,1-3,.485,9.752,9.752,0,0,1-9.209-6.688L23.791,34.1V33.9a31.019,31.019,0,0,1,6.4-24.912q1.745-2.181,4.071-4.653L51.61,56.2A9.693,9.693,0,0,1,45.5,68.51Z" transform="translate(192.982 37.543)" fill="#393f4a"/>
        <path id="Shape-13" data-name="Shape" d="M65.248,53.928a10.808,10.808,0,0,1-3,.485,9.693,9.693,0,0,1-9.209-6.591L37.04.13a48.952,48.952,0,0,1,6.107,1.163A31.339,31.339,0,0,1,63.406,17.772l7.949,23.846a9.693,9.693,0,0,1-6.107,12.311Z" transform="translate(312.338 0.944)" fill="#393f4a"/>
        <path id="Shape-14" data-name="Shape" d="M78.946,31.886l-9.1-4.536,4.536-9.092A9.693,9.693,0,1,0,57.039,9.61L52.5,18.7,43.41,14.166a9.693,9.693,0,1,0-8.646,17.351l9.092,4.536L39.32,45.146a9.693,9.693,0,1,0,17.341,8.646L61.2,44.7l9.1,4.536a9.693,9.693,0,0,0,8.646-17.351Z" transform="translate(245.287 34.347)" fill="#fff"/>
        <path id="Shape-15" data-name="Shape" d="M207.781,148.75a93.376,93.376,0,0,1-16.963,21.519,95.964,95.964,0,0,1-57.191,26.463c-3.2.291-6.4.485-9.693.485a95.906,95.906,0,0,1-54.089-16.576h-.1A96.866,96.866,0,0,1,27,100.283,95.664,95.664,0,0,1,38.632,54.337a19.328,19.328,0,0,0,6.979-3A220.563,220.563,0,0,1,98.15,24.966a214.029,214.029,0,0,1,58.16-11.341,22.818,22.818,0,0,0,7.27-1.745,97.069,97.069,0,0,1,38.58,31.213Z" transform="translate(225.056 103.091)" fill="#e54c3c"/>
        <path id="Shape-16" data-name="Shape" d="M90.161,47.081a11.915,11.915,0,0,1-.194,2.617,10.663,10.663,0,0,1-.194,1.745A28.9,28.9,0,0,1,65.54,75.773h-.1a10.665,10.665,0,0,1-1.745.194,11.914,11.914,0,0,1-2.617.194,29.08,29.08,0,1,1,29.08-29.08Z" transform="translate(268.523 156.294)" fill="#464f5d"/>
        <path id="Shape-17" data-name="Shape" d="M75.776,37.446a28.9,28.9,0,0,1-24.233,24.33h-.1a21.219,21.219,0,1,1,24.33-24.33Z" transform="translate(282.519 170.291)" fill="#fff"/>
        <path id="Shape-18" data-name="Shape" d="M103.3,60.773H69.08A29.08,29.08,0,0,1,40,31.693V22H62.2A38.919,38.919,0,0,1,98.257,46.33Z" transform="translate(338.07 191.068)" fill="#f19b1f"/>
        <path id="Shape-19" data-name="Shape" d="M154.324,73.168a80.193,80.193,0,0,1-25.4,57.385A3.625,3.625,0,0,1,123.306,129l-2.617-7.367-5.041-14.443a38.919,38.919,0,0,0-36.059-24.33H47.7A9.693,9.693,0,0,1,38,73.168,57.394,57.394,0,0,1,89.088,15.4a58.441,58.441,0,0,1,65.236,57.772Z" transform="translate(320.679 130.206)" fill="#efc319"/>
      </g>
    </g>
    <g id="music-note" transform="translate(692.604 391.504) rotate(-17)">
      <g id="Group_6" data-name="Group 6" transform="translate(0 0.003)">
        <g id="Group_5" data-name="Group 5">
          <path id="Path_30" data-name="Path 30" d="M29.23,14.872A42.688,42.688,0,0,1,18.821,4.556L16.407.935A2.095,2.095,0,0,0,12.569,2.1V34.964A8.283,8.283,0,0,0,8.379,33.8a8.379,8.379,0,1,0,8.379,8.379V8.975a51.635,51.635,0,0,0,9.994,9.276,6.285,6.285,0,0,1-3.709,11.358,2.095,2.095,0,0,0,0,4.19A10.475,10.475,0,0,0,29.23,14.872Z" transform="translate(0 -0.003)" fill="#464f5d"/>
        </g>
      </g>
      <g id="Group_8" data-name="Group 8" transform="translate(25.138 17.039)">
        <g id="Group_7" data-name="Group 7">
          <path id="Path_31" data-name="Path 31" d="M223.7,122.072l-29.607,8.379a2.1,2.1,0,0,0-1.52,2.015v28.4a8.283,8.283,0,0,0-4.19-1.165,8.379,8.379,0,1,0,8.379,8.379V142.427l25.418-7.182v17.241a8.283,8.283,0,0,0-4.19-1.165,8.379,8.379,0,1,0,8.379,8.379V124.087A2.1,2.1,0,0,0,223.7,122.072Z" transform="translate(-180 -121.991)" fill="#464f5d"/>
        </g>
      </g>
    </g>
  </g>
</svg>
