<svg xmlns="http://www.w3.org/2000/svg" xmlns:xlink="http://www.w3.org/1999/xlink" width="1000" height="1000" viewBox="0 0 1000 1000">
  <defs>
    <clipPath id="clip-recycling">
      <rect width="1000" height="1000"/>
    </clipPath>
  </defs>
  <g id="recycling" clip-path="url(#clip-recycling)">
    <rect width="1000" height="1000" fill="#e8ffdd"/>
    <g id="recycling-bin" transform="translate(218.814 206.721)">
      <path id="Path_16" data-name="Path 16" d="M388.224,472.533H153.6v36.049a9.165,9.165,0,0,0,9.165,9.165H379.059a9.165,9.165,0,0,0,9.165-9.165Z" transform="translate(9.941 68.812)" fill="#bbe6a9"/>
      <path id="Path_17" data-name="Path 17" d="M335.11,472.533v35.438a9.775,9.775,0,0,1-9.776,9.776H353.44a9.775,9.775,0,0,0,9.776-9.776V472.533Z" transform="translate(34.95 68.812)" fill="#9edaab"/>
      <path id="Path_18" data-name="Path 18" d="M454.335,189.062,436.948,484.637a39.1,39.1,0,0,1-39.037,36.808H158.823a39.1,39.1,0,0,1-39.037-36.808L102.4,189.062V178.608H454.335Z" transform="translate(2.485 26.009)" fill="#9ed9ae"/>
      <path id="Path_19" data-name="Path 19" d="M392.239,178.608v10.455L374.852,484.638a39.1,39.1,0,0,1-39.036,36.808h28.106a39.1,39.1,0,0,0,39.036-36.808l17.387-295.576V178.607H392.239Z" transform="translate(36.476 26.009)" fill="#81c8ac"/>
      <path id="Path_20" data-name="Path 20" d="M454.335,136.864v6.11H102.4v-6.11l31-108.5A39.1,39.1,0,0,1,171,0H385.735a39.1,39.1,0,0,1,37.6,28.361Z" transform="translate(2.485 0)" fill="#9ed9ae"/>
      <path id="Path_21" data-name="Path 21" d="M390.892,28.361A39.1,39.1,0,0,0,353.293,0H325.187a39.1,39.1,0,0,1,37.6,28.361l31,108.5v6.11h28.106v-6.11Z" transform="translate(34.928)" fill="#81c8ac"/>
      <path id="Path_22" data-name="Path 22" d="M388.224,131.894V138H153.6v-6.11l16.409-82.043a19.553,19.553,0,0,1,19.172-15.718H352.643a19.551,19.551,0,0,1,19.172,15.718Z" transform="translate(9.941 4.971)" fill="#5a5a5a"/>
      <g id="Group_4" data-name="Group 4" transform="translate(213.009 323.218)">
        <g id="Group_1" data-name="Group 1" transform="translate(78.232 78.208)">
          <path id="Path_23" data-name="Path 23" d="M295.992,407.834h-21.76a9.165,9.165,0,1,1,0-18.33h21.76a8.178,8.178,0,0,0,7.316-11.835l-7-14a9.165,9.165,0,0,1,16.394-8.2l7,14a26.507,26.507,0,0,1-23.709,38.363Z" transform="translate(-265.067 -350.399)" fill="#f2f9ff"/>
        </g>
        <g id="Group_2" data-name="Group 2" transform="translate(28.409)">
          <path id="Path_24" data-name="Path 24" d="M291.294,339.577a9.163,9.163,0,0,1-8.2-5.068l-14.761-29.524a8.177,8.177,0,0,0-14.63,0L238.941,334.5a9.164,9.164,0,1,1-16.394-8.2l14.758-29.518a26.508,26.508,0,0,1,47.42,0l14.761,29.524a9.169,9.169,0,0,1-8.192,13.266Z" transform="translate(-221.578 -282.133)" fill="#f2f9ff"/>
        </g>
        <g id="Group_3" data-name="Group 3" transform="translate(0 78.205)">
          <path id="Path_25" data-name="Path 25" d="M245.072,407.834h-21.76A26.508,26.508,0,0,1,199.6,369.469l7-14a9.165,9.165,0,0,1,16.394,8.2l-7,14a8.177,8.177,0,0,0,7.315,11.836h21.76a9.166,9.166,0,0,1,0,18.331Z" transform="translate(-196.779 -350.398)" fill="#f2f9ff"/>
        </g>
      </g>
      <path id="Path_26" data-name="Path 26" d="M350.087,49.851a19.553,19.553,0,0,0-19.172-15.718H302.809a19.553,19.553,0,0,1,19.173,15.718l16.409,82.043V138h28.1v-6.11Z" transform="translate(31.67 4.971)" fill="#464646"/>
      <path id="Path_27" data-name="Path 27" d="M104.885,119.467a19.552,19.552,0,0,0-19.552,19.552v39.1a19.552,19.552,0,0,0,19.552,19.552H456.821a19.552,19.552,0,0,0,19.552-19.552v-39.1a19.552,19.552,0,0,0-19.552-19.552Z" transform="translate(0 17.397)" fill="#bbe6a9"/>
      <path id="Path_28" data-name="Path 28" d="M413.173,119.467H385.067a19.552,19.552,0,0,1,19.552,19.552v39.1a19.552,19.552,0,0,1-19.552,19.552h28.106a19.552,19.552,0,0,0,19.552-19.552v-39.1a19.552,19.552,0,0,0-19.552-19.552Z" transform="translate(43.648 17.397)" fill="#9edaab"/>
      <path id="Path_29" data-name="Path 29" d="M451.273,232.2l1.078-18.33H103.937l1.078,18.33Z" transform="translate(2.709 31.144)" fill="#81c8ac"/>
    </g>
  </g>
</svg>
