<svg xmlns="http://www.w3.org/2000/svg" xmlns:xlink="http://www.w3.org/1999/xlink" width="1000" height="1000" viewBox="0 0 1000 1000">
  <defs>
    <clipPath id="clip-recycling">
      <rect width="1000" height="1000"/>
    </clipPath>
  </defs>
  <g id="recycling" clip-path="url(#clip-recycling)">
    <rect width="1000" height="1000" fill="#d6e1e5"/>
    <g id="plant" transform="translate(217.215 188.131)">
      <path id="Path_1" data-name="Path 1" d="M425.3,45.536c2.562,7,31.026,90.362-27.351,188.661-35.458,59.705-89.294,63.656-94.566,63.9-3.088-4.281-33.482-48.892-8.79-113.793C335.247,77.45,418.221,47.887,425.3,45.536Z" transform="translate(30.552 6.024)" fill="#80c56e"/>
      <path id="Path_2" data-name="Path 2" d="M423.151,45.536,301.234,298.1h0c5.273-.246,59.108-4.2,94.566-63.9C454.178,135.9,425.713,52.54,423.151,45.536Z" transform="translate(32.7 6.024)" fill="#66ad66"/>
      <path id="Path_3" data-name="Path 3" d="M297.907,276.44l3.767-7.8-.3-.418C299.047,273.662,297.907,276.44,297.907,276.44Z" transform="translate(32.26 35.485)" fill="#fff" stroke="#000" stroke-linecap="round" stroke-linejoin="round" stroke-miterlimit="10" stroke-width="15"/>
      <path id="Path_4" data-name="Path 4" d="M104.166,45.536C101.6,52.54,73.14,135.9,131.517,234.2c35.458,59.705,89.294,63.656,94.566,63.9,3.088-4.281,33.482-48.892,8.789-113.793C194.218,77.45,111.244,47.887,104.166,45.536Z" transform="translate(5.414 6.024)" fill="#80c56e"/>
      <path id="Path_5" data-name="Path 5" d="M233.8,184.3C193.146,77.45,110.172,47.887,103.094,45.536c72.094,137.7,110.98,225.9,122.214,252.143C229.634,291.494,257.857,247.532,233.8,184.3Z" transform="translate(6.486 6.024)" fill="#66ad66"/>
      <path id="Path_6" data-name="Path 6" d="M267.089,0C258.4,8.435,157.926,110.243,173.9,295.2c9.7,112.345,85.646,156.125,93.184,160.206,7.538-4.081,83.479-47.862,93.184-160.206C376.251,110.243,275.78,8.435,267.089,0Z" transform="translate(15.627)" fill="#80c56e"/>
      <path id="Path_7" data-name="Path 7" d="M256,0V455.41c7.538-4.081,83.479-47.862,93.184-160.206C365.163,110.243,264.692,8.435,256,0Z" transform="translate(26.716)" fill="#66ad66"/>
      <path id="Path_8" data-name="Path 8" d="M471.1,264.69C490,199.72,483.6,139.334,483.6,139.334s-36.4,16.217-127.892,75.338C284.6,260.626,262.595,341.2,256,362.914h83.578C400.332,362.914,454.125,323.025,471.1,264.69Z" transform="translate(26.716 18.434)" fill="#80c56e"/>
      <path id="Path_9" data-name="Path 9" d="M483.6,139.333S389.58,325.079,256,362.914h83.579c60.755,0,114.547-39.889,131.521-98.224C490,199.72,483.6,139.333,483.6,139.333Z" transform="translate(26.716 18.434)" fill="#66ad66"/>
      <path id="Path_10" data-name="Path 10" d="M67.617,264.69c-18.9-64.97-12.505-125.356-12.505-125.356S91.516,155.551,183,214.672c71.114,45.954,93.117,126.527,99.712,148.242H199.137C138.383,362.914,84.59,323.025,67.617,264.69Z" transform="translate(0 18.434)" fill="#80c56e"/>
      <path id="Path_11" data-name="Path 11" d="M282.594,362.914C276,341.2,254,260.626,182.882,214.671,91.394,155.55,54.989,139.333,54.989,139.333S149.014,325.08,282.594,362.914Z" transform="translate(0.122 18.434)" fill="#66ad66"/>
      <path id="Path_12" data-name="Path 12" d="M334.172,534.636H213.3a66.547,66.547,0,0,1-65.425-54.381L121.956,340.9H425.513L399.6,480.256A66.549,66.549,0,0,1,334.172,534.636Z" transform="translate(8.981 45.101)" fill="#fec37d"/>
      <path id="Path_13" data-name="Path 13" d="M348.865,340.9,322.95,480.257a66.548,66.548,0,0,1-65.427,54.38h58.713a66.547,66.547,0,0,0,65.425-54.381L407.577,340.9H348.865Z" transform="translate(26.917 45.101)" fill="#f9ae5d"/>
      <path id="Path_14" data-name="Path 14" d="M434.116,373.945H119.975A23.05,23.05,0,0,1,96.926,350.9h0a23.05,23.05,0,0,1,23.049-23.049H434.117A23.05,23.05,0,0,1,457.166,350.9h0A23.05,23.05,0,0,1,434.116,373.945Z" transform="translate(5.67 43.374)" fill="#f2a559"/>
      <path id="Path_15" data-name="Path 15" d="M399.033,327.846H362.1v46.1h36.929A23.05,23.05,0,0,0,422.082,350.9h0A23.048,23.048,0,0,0,399.033,327.846Z" transform="translate(40.753 43.374)" fill="#ea8f3d"/>
    </g>
  </g>
</svg>
