<svg xmlns="http://www.w3.org/2000/svg" xmlns:xlink="http://www.w3.org/1999/xlink" width="1015" height="451" viewBox="0 0 1015 451">
  <defs>
    <filter id="Path_162" x="2.5" y="110" width="73.214" height="25.5" filterUnits="userSpaceOnUse">
      <feOffset dy="3" input="SourceAlpha"/>
      <feGaussianBlur stdDeviation="0.5" result="blur"/>
      <feFlood flood-opacity="0.161"/>
      <feComposite operator="in" in2="blur"/>
      <feComposite in="SourceGraphic"/>
    </filter>
    <filter id="Path_162-2" x="270.5" y="110" width="73.214" height="25.5" filterUnits="userSpaceOnUse">
      <feOffset dy="3" input="SourceAlpha"/>
      <feGaussianBlur stdDeviation="0.5" result="blur-2"/>
      <feFlood flood-opacity="0.161"/>
      <feComposite operator="in" in2="blur-2"/>
      <feComposite in="SourceGraphic"/>
    </filter>
    <filter id="Path_162-3" x="141.5" y="110" width="73.214" height="25.5" filterUnits="userSpaceOnUse">
      <feOffset dy="3" input="SourceAlpha"/>
      <feGaussianBlur stdDeviation="0.5" result="blur-3"/>
      <feFlood flood-opacity="0.161"/>
      <feComposite operator="in" in2="blur-3"/>
      <feComposite in="SourceGraphic"/>
    </filter>
    <filter id="Rectangle_3" x="523.5" y="323.5" width="127" height="127" filterUnits="userSpaceOnUse">
      <feOffset dy="5" input="SourceAlpha"/>
      <feGaussianBlur stdDeviation="2.5" result="blur-4"/>
      <feFlood flood-opacity="0.161"/>
      <feComposite operator="in" in2="blur-4"/>
      <feComposite in="SourceGraphic"/>
    </filter>
    <clipPath id="clip-path">
      <rect id="Background" width="69" height="49" transform="translate(-0.189)" fill="#fff"/>
    </clipPath>
    <linearGradient id="linear-gradient" x1="0.217" y1="0.08" x2="0.762" y2="0.888" gradientUnits="objectBoundingBox">
      <stop offset="0.102" stop-color="#ffd59e"/>
      <stop offset="0.301" stop-color="#ffb76c"/>
    </linearGradient>
    <linearGradient id="linear-gradient-2" x1="0.217" y1="0.159" x2="0.762" y2="0.968" xlink:href="#linear-gradient"/>
    <linearGradient id="linear-gradient-3" x1="0.249" y1="0.075" x2="0.794" y2="0.883" xlink:href="#linear-gradient"/>
  </defs>
  <g id="Visual_Design_Section" data-name="Visual Design Section" transform="translate(-83 -1719)">
    <g id="Color_Palette" data-name="Color Palette" transform="translate(84 1724)">
      <text id="Color_Palette-2" data-name="Color Palette" transform="translate(0 19)" fill="#737373" font-size="19" font-family="Lato-Regular, Lato"><tspan x="0" y="0">Color Palette</tspan></text>
      <g id="Color_Palette-3" data-name="Color Palette" transform="translate(3 49)">
        <rect id="Rectangle_16" data-name="Rectangle 16" width="71" height="77" rx="10" fill="#00b1ff"/>
        <g transform="matrix(1, 0, 0, 1, -4, -54)" filter="url(#Path_162)">
          <path id="Path_162-4" data-name="Path 162" d="M0,0H70.214V12c0,4.971-3.674,9-8.207,9H8.207C3.674,21,0,16.971,0,12Z" transform="translate(4 110)" fill="#fff"/>
        </g>
        <text id="_00B1FF" data-name="#00B1FF" transform="translate(33 68)" fill="#737373" font-size="6" font-family="Lato-Regular, Lato"><tspan x="-12.292" y="0">#00B1FF</tspan></text>
      </g>
      <g id="Color_Palette-4" data-name="Color Palette" transform="translate(271 49)">
        <rect id="Rectangle_16-2" data-name="Rectangle 16" width="71" height="77" rx="10" fill="#e5e5e5"/>
        <g transform="matrix(1, 0, 0, 1, -272, -54)" filter="url(#Path_162-2)">
          <path id="Path_162-5" data-name="Path 162" d="M0,0H70.214V12c0,4.971-3.674,9-8.207,9H8.207C3.674,21,0,16.971,0,12Z" transform="translate(272 110)" fill="#fff"/>
        </g>
        <text id="_E5E5E5" data-name="#E5E5E5" transform="translate(33 68)" fill="#737373" font-size="6" font-family="Lato-Regular, Lato"><tspan x="-12.157" y="0">#E5E5E5</tspan></text>
      </g>
      <g id="Color_Palette-5" data-name="Color Palette" transform="translate(142 49)">
        <rect id="Rectangle_16-3" data-name="Rectangle 16" width="71" height="77" rx="10" fill="#4b4b4b"/>
        <g transform="matrix(1, 0, 0, 1, -143, -54)" filter="url(#Path_162-3)">
          <path id="Path_162-6" data-name="Path 162" d="M0,0H70.214V12c0,4.971-3.674,9-8.207,9H8.207C3.674,21,0,16.971,0,12Z" transform="translate(143 110)" fill="#fff"/>
        </g>
        <text id="_4B4B4B" data-name="#4B4B4B" transform="translate(33 68)" fill="#737373" font-size="6" font-family="Lato-Regular, Lato"><tspan x="-12.778" y="0">#4B4B4B</tspan></text>
      </g>
    </g>
    <g id="Typography" transform="translate(84 1887)">
      <text id="Typography-2" data-name="Typography" transform="translate(0 20)" fill="#737373" font-size="20" font-family="Lato-Regular, Lato"><tspan x="0" y="0">Typography</tspan></text>
      <text id="This_project_uses_Rounded_Mplus_1c_which_is_a_clean_minimalist_yet_playful_font" data-name="This project uses Rounded Mplus 1c which is a clean, minimalist, yet playful font" transform="translate(150 49)" fill="#737373" font-size="8" font-family="RoundedMplus1c-Regular, 'Rounded Mplus 1c'"><tspan x="-150.304" y="0">This project uses Rounded Mplus 1c which is a clean, minimalist, yet playful font</tspan></text>
      <text id="Here_is_an_example_of_Rounded_Mplus_1c_Bold_at_24px_and_4B4B4B_color" data-name="Here is an example of Rounded Mplus 1c Bold at 24px and #4B4B4B color" transform="translate(142 77)" fill="#4b4b4b" font-size="8" font-family="RoundedMplus1c-Bold, 'Rounded Mplus 1c Bold'" font-weight="700"><tspan x="-141.664" y="0">Here is an example of Rounded Mplus 1c Bold at 24px and #4B4B4B color</tspan></text>
    </g>
    <g id="Buttons" transform="translate(84 2008)">
      <text id="Buttons-2" data-name="Buttons" transform="translate(0 20)" fill="#737373" font-size="20" font-family="Lato-Regular, Lato"><tspan x="0" y="0">Buttons</tspan></text>
      <g id="Button" transform="translate(0 47)">
        <rect id="Rectangle_2" data-name="Rectangle 2" width="123" height="35" rx="17.5" fill="#00b1ff"/>
        <text id="Unlocked" transform="translate(60 20)" fill="#fff" font-size="9" font-family="RoundedMplus1c-Bold, 'Rounded Mplus 1c Bold'" font-weight="700"><tspan x="-19.76" y="0">Unlocked</tspan></text>
      </g>
      <g id="Button-2" data-name="Button" transform="translate(145.134 47)">
        <rect id="Rectangle_2-2" data-name="Rectangle 2" width="123" height="35" rx="17.5" transform="translate(-0.134)" fill="#e5e5e5"/>
        <text id="Locked" transform="translate(60.866 20)" fill="#afafaf" font-size="9" font-family="RoundedMplus1c-Bold, 'Rounded Mplus 1c Bold'" font-weight="700"><tspan x="-15.106" y="0">Locked</tspan></text>
      </g>
    </g>
    <g id="Components" transform="translate(614.171 1719)">
      <text id="Components-2" data-name="Components" transform="translate(-0.171 18)" fill="#737373" font-size="18" font-family="Lato-Regular, Lato"><tspan x="0" y="0">Components</tspan></text>
      <text id="One_of_the_questions_on_the_survey_asks_how_many_times_an_individual_has_published_a_creative_piece._Instead_of_having_the_user_manually_type_the_number_I_ve_implemented_an_input_stepper_with_the_default_value_of_0._" data-name="One of the questions on the survey asks how 
many times an individual has published a creative 
piece. Instead of having the user manually type 
the number, I’ve implemented an input stepper 
with the default value of 0. " transform="translate(197.829 47)" fill="#737373" font-size="14" font-family="Lato-Regular, Lato"><tspan x="0" y="14">One of the questions on the survey asks how </tspan><tspan x="0" y="31">many times an individual has published a </tspan><tspan x="0" y="48">creative </tspan><tspan x="0" y="65">piece. Instead of having the user manually </tspan><tspan x="0" y="82">type </tspan></text>
      <text id="Input_Stepper" data-name="Input Stepper" transform="translate(31.829 55)" fill="#afafaf" font-size="9" font-family="RoundedMplus1c-Medium, 'Rounded Mplus 1c Medium'" font-weight="500"><tspan x="-29.655" y="0">Input Stepper</tspan></text>
      <text id="Progress_Bar" data-name="Progress Bar" transform="translate(29.829 195)" fill="#afafaf" font-size="9" font-family="RoundedMplus1c-Medium, 'Rounded Mplus 1c Medium'" font-weight="500"><tspan x="-27.274" y="0">Progress Bar</tspan></text>
      <text id="Panel" transform="translate(14.829 307)" fill="#afafaf" font-size="9" font-family="RoundedMplus1c-Medium, 'Rounded Mplus 1c Medium'" font-weight="500"><tspan x="-11.565" y="0">Panel</tspan></text>
      <g id="Progress_Bar-2" data-name="Progress Bar" transform="translate(1.829 214)">
        <rect id="Rectangle_17" data-name="Rectangle 17" width="149" height="18" rx="9" fill="#e5e5e5"/>
        <rect id="Rectangle_6" data-name="Rectangle 6" width="36" height="18" rx="9" fill="#00b1ff"/>
      </g>
      <text id="Jakob_Nielsen_states_in_his_10_usability_heuristics_article_that_a_system_should_always_keep_users_informed_of_what_s_going_on._That_s_why_I_ve_designed_a_progress_bar_so_the_user_will_always_know_how_close_they_are_to_finishing." data-name="Jakob Nielsen states in his 10 usability heuristics article that a system should always keep users informed  of what’s going on. That’s why I’ve designed a progress bar so the  user will always know how close they are to finishing." transform="translate(194.829 186)" fill="#737373" font-size="14" font-family="Lato-Regular, Lato"><tspan x="0" y="14">Jakob Nielsen states in his 10 usability </tspan><tspan x="0" y="31">heuristics article that a system should always </tspan><tspan x="0" y="48" xml:space="preserve">keep users informed  of what’s going on. That’s </tspan><tspan x="0" y="65" xml:space="preserve">why I’ve designed a progress bar so the  user </tspan><tspan x="0" y="82">will always know how close they are to </tspan></text>
      <text id="Instead_of_just_listing_a_bunch_of_categories_I_made_panels_that_the_user_clicks_to_make_things_feel_more_interactive_and_fun._The_icons_were_all_freely_licensed." data-name="Instead of just listing a bunch of categories, I made panels that the user clicks to make things feel more interactive and fun. The icons were all freely licensed." transform="translate(194.829 313)" fill="#737373" font-size="14" font-family="Lato-Regular, Lato"><tspan x="0" y="14">Instead of just listing a bunch of categories, I </tspan><tspan x="0" y="31">made panels that the user clicks to make </tspan><tspan x="0" y="48">things feel more interactive and fun. The </tspan><tspan x="0" y="65">icons were all freely licensed.</tspan></text>
      <g id="Input_Stepper-2" data-name="Input Stepper" transform="translate(0 56.97)">
        <path id="Underline" d="M0,0H29.18" transform="translate(3.192 70.5)" fill="none" stroke="#4b4b4b" stroke-linecap="round" stroke-width="4"/>
        <g id="Rectangle_15" data-name="Rectangle 15" transform="translate(51.065 17)" fill="#00b1ff" stroke="#00b1ff" stroke-width="2">
          <rect width="71.126" height="30" rx="6" stroke="none"/>
          <rect x="1" y="1" width="69.126" height="28" rx="5" fill="none"/>
        </g>
        <path id="Path_161" data-name="Path 161" d="M5.471,0H65.655a5.754,5.754,0,0,1,5.471,6V24a5.754,5.754,0,0,1-5.471,6H5.471A5.754,5.754,0,0,1,0,24V6A5.754,5.754,0,0,1,5.471,0Z" transform="translate(51.065 51)" fill="#e5e5e5"/>
        <text id="_" data-name="+" transform="translate(76.597 7)" fill="#fff" font-size="32" font-family="RoundedMplus1c-Bold, 'Rounded Mplus 1c Bold'" font-weight="700"><tspan x="-1.713" y="34">+</tspan></text>
        <text id="_-" data-name="-" transform="translate(76.597 30)" fill="#afafaf" font-size="46" font-family="RoundedMplus1c-Bold, 'Rounded Mplus 1c Bold'" font-weight="700"><tspan x="-1.055" y="49">-</tspan></text>
        <text id="_0" data-name="0" transform="translate(16 55)" fill="#4b4b4b" font-size="51" font-family="RoundedMplus1c-Bold, 'Rounded Mplus 1c Bold'" font-weight="700"><tspan x="-16.32" y="0">0</tspan></text>
      </g>
      <g id="Full_Panel" data-name="Full Panel" transform="translate(-0.171 326)">
        <g transform="matrix(1, 0, 0, 1, -531, -326)" filter="url(#Rectangle_3)">
          <g id="Rectangle_3-2" data-name="Rectangle 3" transform="translate(531 326)" fill="#fff" stroke="#e5e5e5" stroke-width="2">
            <rect width="112" height="112" rx="10" stroke="none"/>
            <rect x="1" y="1" width="110" height="110" rx="9" fill="none"/>
          </g>
        </g>
        <text id="Category" transform="translate(55 31)" fill="#4b4b4b" font-size="8" font-family="DINRoundWebW03-Regular"><tspan x="-15.886" y="0">Category</tspan></text>
        <g id="Ramen" transform="translate(24.189 43)" clip-path="url(#clip-path)">
          <g id="ramen-2" data-name="ramen" transform="translate(9.727 -0.716)">
            <circle id="Ellipse_7" data-name="Ellipse 7" cx="25.436" cy="25.436" r="25.436" transform="translate(0 0)" fill="#cf9f66"/>
            <circle id="Ellipse_8" data-name="Ellipse 8" cx="21.731" cy="21.731" r="21.731" transform="translate(3.752 3.752)" fill="#89643d"/>
            <circle id="Ellipse_9" data-name="Ellipse 9" cx="17.18" cy="17.18" r="17.18" transform="translate(5.797 6.837)" fill="#c45c00"/>
            <path id="Path_19" data-name="Path 19" d="M162.944,381.751s4.732-4.275,9.856-3.375,5.888,5.948,3.81,7.87c0,0-.678-.082-1.038-1.2s-1.471-3.539-3.675-3.531-4.56.355-9.379,4.2A10.02,10.02,0,0,1,162.944,381.751Z" transform="translate(-158.385 -361.952)" fill="#c98019"/>
            <path id="Path_20" data-name="Path 20" d="M400.784,318.985s6.744-4.433,11.125.322a23.8,23.8,0,0,0,3.136,4.42c1.293,1.149,4.554,2.132,4.368,6.111s-2.039,5.3-3.078,5.39-6.926-.766-8.253,1.093-.7,6.378-2.388,8.487-9.59-.87-7.3-6.691-1.615-9.083-2.344-10.641-2.643-5.457,2.577-7.284,4.055,2,2.676,2.454-4.021.761-3.514,3.54,3.881,4.033,3.647,8.085-1.908,5.089-1.111,6.7,3.516,3.107,4.1,1.342-.115-6.918,3.4-8.993,7.349.268,8.475-.844.957-3.961-1.309-5.557a17.192,17.192,0,0,1-4.95-5.816c-1.115-2.008-5.048-1.971-8.457.076S397.692,320.85,400.784,318.985Z" transform="translate(-378.309 -304.145)" fill="#eb9800"/>
            <path id="Path_21" data-name="Path 21" d="M308.026,173.12s-2.68-3.336.2-6.512,12-.857,11.139,4.143.22,4.837,1.58,5.737,3.732.71,5.545,1.811,3.335,3.379.86,6.531a8.046,8.046,0,0,1-10.3,2.275c-3.918-1.908-6.749-3.39-8.7,1.772s-2.929,9.009-5.822,9.245-3.575-.8-2.427-2.094,2.416.036,3.544-1.663,1.093-4.163,3.634-7.858,6.093-3.3,9.6-1.368a5.59,5.59,0,0,0,7.792-1.882c1.44-2.176.937-3.78-5.012-4.391,0,0-4.187-1.208-3.523-5.164s-.474-6.081-2.961-6.161-4.515,1.952-3.372,5.613S308.026,173.12,308.026,173.12Z" transform="translate(-288.001 -160.487)" fill="#d68b00"/>
            <path id="Path_22" data-name="Path 22" d="M301.768,300.534s1.068-4.865-3.057-7.5-7.84,1.656-9.747,5.576-.244,7.462-2.617,9.121-6.535-.316-9.107.033-8.982,4.419-.836,11.466,17.768-.855,19.027-2.759,1.658-3.985,3.3-5.438-1.5-1.872-2.309-.941a21.257,21.257,0,0,0-2.881,4.647c-.9,1.952-5.705,4.339-9.164,4.4s-8.236-1.734-8.883-5.779,5.214-2.709,6.505-2.149,8.992-.6,8.992-7.246,4.082-8.829,6.82-8.39,1.738,5.646.95,6.395-4.192,3.677-8.55.212l-.828,2.286s3.654,3.785,7.582,2.279S301.768,300.534,301.768,300.534Z" transform="translate(-262.318 -280.626)" fill="#ebba1d"/>
            <path id="Path_23" data-name="Path 23" d="M333.486,280.459s-5.7-4.134-1.106-10.408,13.089-5.268,13.623-2.422-1.473,5.551.929,9.119,7.3,3.145,9.386,8.411-6.691,11.775-12.167,6.758-.913-8.373.558-9.159,2.071.637,1.261,1.859-4.294,3.831.634,6.577,9.857-3.155,6.9-6.214-3.687-1.852-7.4-5.773-2.265-7.435-2.253-8.894-1.726-3.708-4.723-2.391-9.828,6.767-3.415,12.255C335.723,280.18,335.913,281.332,333.486,280.459Z" transform="translate(-317.327 -255.259)" fill="#ffca1f"/>
            <path id="Path_24" data-name="Path 24" d="M648.469,421.458s-5.868-3.393-9.691,3.268,7.816,10.644,8.619,7.656-.256-1.83-1.678-1.6-6.505.386-5.625-5.089c.767-4.746,6.618-3.852,7.914-2.675a.776.776,0,0,0,1.224-.166C649.4,422.512,649.3,422.048,648.469,421.458Z" transform="translate(-607.964 -401.984)" fill="#ffd85e"/>
            <path id="Path_25" data-name="Path 25" d="M541.892,536.961s3.842-2.151,3.287-5.523-1.115-2.641-1.022-2,.943,2.9-.34,4.614a7.741,7.741,0,0,1-2.45,2.484C540.028,537.561,541.62,537.149,541.892,536.961Z" transform="translate(-516.097 -504.372)" fill="#ffe38a"/>
            <path id="Path_26" data-name="Path 26" d="M528.276,274.084s3-.434,3.668,1.547.257.83-.661.223S526.345,274.791,528.276,274.084Z" transform="translate(-503.73 -263.433)" fill="#ffd85e"/>
            <circle id="Ellipse_10" data-name="Ellipse 10" cx="15.173" cy="15.173" r="15.173" transform="translate(14.166 14.046)" fill="#d96600"/>
            <path id="Path_27" data-name="Path 27" d="M645.474,673.782s2.687-4.95.853-9.162-6.328-3.82-7.548-1.637c0,0,.212.566,1.246.643s3.346.529,3.794,2.423.641,3.988-1.664,8.922A8.846,8.846,0,0,0,645.474,673.782Z" transform="translate(-608.692 -629.627)" fill="#c98019"/>
            <path id="Path_28" data-name="Path 28" d="M364.582,346.286s2.406-6.709-2.585-9.479a21.042,21.042,0,0,1-4.445-1.775c-1.254-.872-2.774-3.465-6.151-2.478s-4.122,2.846-3.988,3.757,2.095,5.783.774,7.308-5.33,1.925-6.79,3.81,2.736,8.052,7.257,4.883,8.133-.5,9.62-.2,5.238,1.135,5.724-3.723-2.556-3.067-2.663-1.788.186,3.61-2.309,3.752-4.267-2.5-7.694-1.454-3.977,2.7-5.518,2.34-3.4-2.374-2-3.239,5.963-1.336,7.01-4.788-1.755-6.255-1.034-7.449,3.2-1.644,5.043-.03a15.169,15.169,0,0,0,6.019,3.042c1.952.541,2.74,3.926,1.69,7.275S363.625,349.327,364.582,346.286Z" transform="translate(-327.263 -318.541)" fill="#eb9800"/>
            <path id="Path_29" data-name="Path 29" d="M462.678,340.749a4.451,4.451,0,0,0,5.548-1.525c2.128-3.134-1.755-10.481-5.867-8.7s-4.2.814-5.254-.166-1.387-3.055-2.705-4.383-3.594-2.163-5.785.616a7.107,7.107,0,0,0,.186,9.316c2.451,2.968,4.311,5.091.279,7.835s-7.125,4.384-6.728,6.916,1.429,2.9,2.3,1.65-.533-2.07.692-3.387,3.345-1.8,5.992-4.751,1.569-5.915-.818-8.529a4.938,4.938,0,0,1,0-7.081c1.569-1.687,3.05-1.588,4.809,3.391,0,0,1.9,3.346,5.164,1.952s5.319-.855,5.9,1.263-.734,4.284-4.118,4.062S462.678,340.749,462.678,340.749Z" transform="translate(-422.954 -311.361)" fill="#d68b00"/>
            <path id="Path_30" data-name="Path 30" d="M365.64,329.707s3.954-1.926,7.069,1.069.205,7.073-2.763,9.524-6.355,1.758-7.288,4.135,1.627,5.544,1.859,7.829-1.928,8.628-9.665,3.1-2.952-15.427-1.58-16.905,3.077-2.251,3.983-3.965,1.917.9,1.287,1.788a18.813,18.813,0,0,1-3.391,3.439c-1.487,1.174-2.541,5.8-1.873,8.778s3.2,6.71,6.8,6.427,1.244-5.038.5-6.03-1.354-7.846,4.353-9.224,6.735-5.338,5.787-7.6-5.2-.321-5.687.511a5.372,5.372,0,0,0,1.591,7.38l-1.79,1.186s-4.007-2.351-3.531-6.041S365.64,329.707,365.64,329.707Z" transform="translate(-336.195 -315.482)" fill="#ebba1d"/>
            <path id="Path_31" data-name="Path 31" d="M377.339,403.265s4.731,4.031,9.164-1.208,1.808-12.329-.743-12.2-4.461,2.416-8.022,1.093-4.214-5.617-9.169-6.319-8.724,8.186-3.281,11.848,7.377-.954,7.746-2.382-.977-1.646-1.859-.7-2.4,4.481-5.778.821.664-9.117,3.9-7.209,2.355,2.78,6.49,5.152,6.853.4,8.1.093,3.541.713,3.032,3.558-3.772,9.836-9.813,5.47C377.114,401.287,376.086,401.362,377.339,403.265Z" transform="translate(-347.601 -367.948)" fill="#ffca1f"/>
            <path id="Path_32" data-name="Path 32" d="M625.692,568.863a8.025,8.025,0,0,1-3.689-2.7c-1.993-2.3-4.6-4.724-9.867-2.394s-4.512,8.34-.524,10.873c0,0,1.311.335-.123-1.295s-2.839-4.558-.093-6.721,5.343-2.256,7.631-.279,3.365,4.31,6.061,4.9A8.3,8.3,0,0,0,625.692,568.863Z" transform="translate(-579.975 -536.454)" fill="#ffd03b"/>
            <path id="Path_33" data-name="Path 33" d="M382.817,537.836s6.965-1.78,6.691-10.519c0,0-.51-4.6-5.607-3.962s-6.983-.817-8.612-2.553-4.885-2.994-8,.671.049,15.09,8.04,13.157.366,4.839-.9,4.694-1.811-.431-3.664-2.007-5.85-6.474-10.458-6.041c0,0-.407.359.824,1.651s2.654-.558,7.13,3.83,6.023,5.971,11.076.936.186-5.432-.954-5.238-5.411,1.456-7.839-1.244-2.743-7.2-.7-8.915,3.321-1.115,4.959.852,6.185,3.024,9.131,2.077,5.195,3.135,2.359,8.167-9.959,3.647-11.416,3.474c-1.215-.147-5.523-.713-7.447.581a1.079,1.079,0,0,0-.006,1.753,1.741,1.741,0,0,0,1.249.451c.8-.175.157-1.487,9.567-1.108a11.788,11.788,0,0,0,3.291-.336C381.957,538.1,382.4,537.975,382.817,537.836Z" transform="translate(-345.362 -495.119)" fill="#ffd85e"/>
            <path id="Path_34" data-name="Path 34" d="M461.7,313.334s4.13,4.333-.8,8.994-10.758-4.5-8.364-5.81,1.624-.161,1.721,1.11,1.022,5.669,5.536,3.773c3.915-1.643,1.934-6.481.651-7.349a.686.686,0,0,1-.111-1.085C460.6,312.753,461.02,312.743,461.7,313.334Z" transform="translate(-432.098 -300.105)" fill="#ffd85e"/>
            <path id="Path_35" data-name="Path 35" d="M478.545,533.682s1.048-3.743,4.058-3.967,2.5.406,1.927.465-2.682-.209-3.89,1.248a6.844,6.844,0,0,0-1.624,2.619C478.416,535.406,478.44,533.953,478.545,533.682Z" transform="translate(-457.149 -505.103)" fill="#ffe38a"/>
            <path id="Path_36" data-name="Path 36" d="M775.474,489.357s-.249-2.665-2.089-2.828-.766-.049-.054.613S775.273,491.16,775.474,489.357Z" transform="translate(-734.987 -464.258)" fill="#ffd85e"/>
            <path id="Path_37" data-name="Path 37" d="M317.047,204.94a9.088,9.088,0,0,0,3.946,3.346c3.058,1.585,6.423,3.81,5.259,10.223s-7.977,7.184-11.823,3.467c0,0-.717-1.354,1.457-.208s5.772,1.912,7.421-1.689,1.062-6.481-1.726-8.473-5.639-2.557-7.005-5.367A9.357,9.357,0,0,1,317.047,204.94Z" transform="translate(-301.939 -198.1)" fill="#ffd03b"/>
            <path id="Path_38" data-name="Path 38" d="M177.781,245.431s.107-8.14,9.8-10.159c0,0,5.2-.664,5.855,5.117s2.756,7.468,5.1,8.8,4.595,4.579,1.388,8.982-16.621,3.96-16.621-5.349-5.423.884-4.925,2.239.956,1.879,3.184,3.5,8.682,4.716,9.43,9.9c0,0-.287.543-2.037-.465s-.093-3.067-6.112-6.828-8.178-5.041-3.977-11.94,5.929-1.65,6.018-.344-.164,6.342,3.455,8.3,8.649,1.1,10-1.6.342-3.952-2.257-5.232-4.968-6.005-4.714-9.5-4.833-4.883-9.616-.423-1.365,11.925-.783,13.482c.485,1.3,2.254,5.888,1.341,8.35a1.222,1.222,0,0,1-1.927.472,1.974,1.974,0,0,1-.828-1.255c-.02-.924,1.593-.568-1.326-10.824a13.393,13.393,0,0,1-.506-3.711C177.722,246.448,177.737,245.921,177.781,245.431Z" transform="translate(-171.819 -226.756)" fill="#ffe38c"/>
            <path id="Path_39" data-name="Path 39" d="M452.141,259.714s1.557.849,1.875,5.026a9.359,9.359,0,0,0,5.061,7.61,5.424,5.424,0,0,1,2.018,7.786s2.372-5.026-2.3-7.539a9.028,9.028,0,0,1-5.238-7.928C453.343,262.688,453.308,261.307,452.141,259.714Z" transform="translate(-432.241 -249.885)" fill="#fff4d1"/>
            <path id="Path_40" data-name="Path 40" d="M679.379,299a4.249,4.249,0,0,0-5.1-1.6s-1.038.613.33.52a5.177,5.177,0,0,1,4.436,1.276C680.465,300.6,679.568,299.235,679.379,299Z" transform="translate(-641.901 -285.23)" fill="#ffd03b"/>
            <path id="Path_41" data-name="Path 41" d="M555.4,525.711s1.132-1.7.279-3.115-.455-1.662.009-1.349a3.91,3.91,0,0,1,1.218,3.237c-.07,1.766-1.18,4.248-3.067,4.861S553.134,528.212,555.4,525.711Z" transform="translate(-527.501 -497.029)" fill="#fff0c2"/>
            <path id="Path_42" data-name="Path 42" d="M239.7,432.084s1.7-1.935,2.832-1.415a3.321,3.321,0,0,1,1.51,2.548c.046.472.186,2.6.279,3.114s-.566.378-.613-.566,0-4.247-1.321-4.483a2.509,2.509,0,0,0-2.5,1.085C239.56,432.84,239.513,432.368,239.7,432.084Z" transform="translate(-231.293 -411.425)" fill="#fff0c2"/>
            <path id="Path_43" data-name="Path 43" d="M208.414,180.914c2.438,10.844-8.48,25.092-20.126,21.782-10.687-3.04-21.23-7.414-21.23-18.529s9.561-22.42,20.678-22.42S206.671,173.16,208.414,180.914Z" transform="translate(-162.719 -157.265)" fill="#fff276" opacity="0.51"/>
            <path id="Path_44" data-name="Path 44" d="M702.813,226.355s-1.278-1.22-2.032.116.7,1.51,1.394,1.626c0,0-.813.813.29,1.162s2.73-.116,4.589,1.916,4.7,7.726,3.485,10.92,1.975,5.924,1.394,7.958-1.336,5.053-2.788,6.214-3.079,2.9-1.394,2.672c0,0,4.879-4.472,5.4-13.359a13.39,13.39,0,0,0-1.278-8.073,58.7,58.7,0,0,0-4.414-6.68C707.054,230.13,706.589,228.271,702.813,226.355Z" transform="translate(-667.109 -217.866)" fill="#fff2ff"/>
            <path id="Path_45" data-name="Path 45" d="M338.071,801.027s-1.394-1.22.175-1.859,2.672,1.394,2.672,2.032,1.278,1.569,3.659,2.15,2.556-.291,3.776.057,3.137,1.975,5.053,1.626,2.439.291,1.046.523S344.635,804.919,338.071,801.027Z" transform="translate(-323.858 -759.779)" fill="#fff2ff"/>
            <ellipse id="Ellipse_11" data-name="Ellipse 11" cx="1.19" cy="1.074" rx="1.19" ry="1.074" transform="translate(29.141 10.929)" fill="#fff2ff"/>
            <path id="Path_46" data-name="Path 46" d="M188.418,299.794a7.664,7.664,0,0,1-7.952,7.9,8.566,8.566,0,0,1-8.5-8.419c0-4.595,3.933-7.926,8.527-7.926S188.418,295.2,188.418,299.794Z" transform="translate(-167.355 -279.793)" fill="#965030"/>
            <circle id="Ellipse_12" data-name="Ellipse 12" cx="7.377" cy="7.377" r="7.377" transform="translate(5.733 12.21)" fill="#ffb95c"/>
            <circle id="Ellipse_13" data-name="Ellipse 13" cx="6.677" cy="6.677" r="6.677" transform="translate(6.433 13.138)" fill="#ffe9cc"/>
            <circle id="Ellipse_14" data-name="Ellipse 14" cx="5.956" cy="5.956" r="5.956" transform="translate(7.154 14.197)" fill="url(#linear-gradient)"/>
            <path id="Path_47" data-name="Path 47" d="M214.169,324.037s3.374-7.416,8.514-10.751c0,0,.9-.279,1.609.863s-8.436,7.142-5.885,8.044,7.573-5.886,9.182-3.139c0,0,.51,1.216-1.609,2.982s-4.357,4.752-4.474,5.379a11.383,11.383,0,0,1-1.726.079,35.2,35.2,0,0,1,5.689-6.431c1.648-1.138.628-1.884-1.487-.157s-6.671,3.924-6.868,1.374,3.767-5.964,4.631-6.553.353-.942-.471-.2a24.223,24.223,0,0,0-6.514,9.339A4.24,4.24,0,0,1,214.169,324.037Z" transform="translate(-207.259 -300.504)" fill="#ff9100" opacity="0.47"/>
            <path id="Path_48" data-name="Path 48" d="M210.081,321.272A36.985,36.985,0,0,1,214.79,314c2.459-2.668,3.741-3.636,4.395-3.427a4.211,4.211,0,0,0-.523-.235c-.288-.105-2.2,1.046-4.578,3.82a34.146,34.146,0,0,0-4.239,6.8Z" transform="translate(-203.17 -297.739)" fill="#ffe9cc"/>
            <path id="Path_49" data-name="Path 49" d="M172.358,300.207a7.831,7.831,0,0,1,4.421-9.26,7.913,7.913,0,0,1,10.229,2.563s-4.317-5.467-10.229-2.406A8.227,8.227,0,0,0,172.358,300.207Z" transform="translate(-167.463 -278.555)" fill="#70270f"/>
            <path id="Path_50" data-name="Path 50" d="M298.367,160.5a7.665,7.665,0,0,1,10.829,2.9,8.567,8.567,0,0,1-3,11.589c-3.971,2.311-8.829.588-11.141-3.382S294.4,162.809,298.367,160.5Z" transform="translate(-282.731 -154.982)" fill="#965030"/>
            <circle id="Ellipse_15" data-name="Ellipse 15" cx="7.377" cy="7.377" r="7.377" transform="translate(11.899 5.221)" fill="#ffb95c"/>
            <circle id="Ellipse_16" data-name="Ellipse 16" cx="6.677" cy="6.677" r="6.677" transform="translate(12.797 5.806)" fill="#ffe9cc"/>
            <circle id="Ellipse_17" data-name="Ellipse 17" cx="5.956" cy="5.956" r="5.956" transform="translate(13.81 6.357)" fill="url(#linear-gradient-2)"/>
            <path id="Path_51" data-name="Path 51" d="M319.225,206s-8.107.815-13.576-1.952a1.477,1.477,0,0,1-.064-1.825c.628-1.183,10.417,3.7,9.913,1.039s-8.9-3.583-7.332-6.356c0,0,.795-1.053,3.386-.11s6.294,1.375,6.9,1.161a11.413,11.413,0,0,1,.937,1.453,35.159,35.159,0,0,1-8.424-1.679c-1.812-.851-1.943.405.614,1.368s6.748,3.791,4.642,5.243-7.05-.255-7.992-.7-.992.169.067.505a24.214,24.214,0,0,0,11.348.929A4.189,4.189,0,0,1,319.225,206Z" transform="translate(-293.416 -190.031)" fill="#ff9100" opacity="0.47"/>
            <path id="Path_52" data-name="Path 52" d="M320.923,329.178a37,37,0,0,1-8.654-.411c-3.544-.782-5.025-1.4-5.173-2.073a3.953,3.953,0,0,0,.06.571c.054.3,2.01,1.373,5.6,2.034a34.135,34.135,0,0,0,8.01.241Z" transform="translate(-295.114 -313.209)" fill="#ffe9cc"/>
            <path id="Path_53" data-name="Path 53" d="M307.791,260.477a7.83,7.83,0,0,1-10.223.836,7.91,7.91,0,0,1-2.931-10.13s-2.553,6.481,3.067,10.05A8.227,8.227,0,0,0,307.791,260.477Z" transform="translate(-282.596 -241.821)" fill="#70270f"/>
            <path id="Path_54" data-name="Path 54" d="M469.549,157.419a7.664,7.664,0,0,1-11.192.624A8.566,8.566,0,0,1,457.6,146.1c3.052-3.434,8.205-3.312,11.64-.261S472.6,153.984,469.549,157.419Z" transform="translate(-435.442 -140.049)" fill="#965030"/>
            <circle id="Ellipse_18" data-name="Ellipse 18" cx="7.377" cy="7.377" r="7.377" transform="translate(21.062 4.399)" fill="#ffb95c"/>
            <circle id="Ellipse_19" data-name="Ellipse 19" cx="6.677" cy="6.677" r="6.677" transform="translate(21.611 5.269)" fill="#ffe9cc"/>
            <circle id="Ellipse_20" data-name="Ellipse 20" cx="5.956" cy="5.956" r="5.956" transform="translate(22.107 6.243)" fill="url(#linear-gradient-3)"/>
            <path id="Path_55" data-name="Path 55" d="M473.745,230.054s7.449-3.3,13.507-2.382a1.475,1.475,0,0,1,.629,1.714c-.228,1.321-11.051-.264-9.743,2.1s9.572.629,8.949,3.752c0,0-.427,1.248-3.184,1.161s-6.412.656-6.914,1.047a11.306,11.306,0,0,1-1.343-1.088,35.228,35.228,0,0,1,8.527-1.032c1.988.244,1.72-.991-1.01-1.108s-7.593-1.5-6.046-3.531,6.778-1.952,7.814-1.823.889-.469-.221-.459a24.228,24.228,0,0,0-11.073,2.655A4.242,4.242,0,0,1,473.745,230.054Z" transform="translate(-452.564 -219.439)" fill="#ff9100" opacity="0.47"/>
            <path id="Path_56" data-name="Path 56" d="M475.62,224.045a37,37,0,0,1,8.35-2.308c3.61-.361,5.212-.234,5.562.357a4.015,4.015,0,0,0-.235-.523c-.146-.269-2.337-.677-5.959-.186a34.06,34.06,0,0,0-7.686,2.27Z" transform="translate(-454.438 -213.43)" fill="#ffe9cc"/>
            <path id="Path_57" data-name="Path 57" d="M470.954,147.968a7.83,7.83,0,0,1,9.455-3.987,7.91,7.91,0,0,1,5.948,8.71s.4-6.954-6.048-8.593A8.227,8.227,0,0,0,470.954,147.968Z" transform="translate(-450.028 -140.103)" fill="#70270f"/>
            <path id="Path_58" data-name="Path 58" d="M685.557,375.736a6.729,6.729,0,1,1-12.361-5.319c2.236-5.064,6.228-7.173,9.642-5.7S687.527,371.152,685.557,375.736Z" transform="translate(-640.711 -348.72)" fill="#fff0db"/>
            <circle id="Ellipse_21" data-name="Ellipse 21" cx="5.237" cy="5.237" r="5.237" transform="translate(33.154 19.754)" fill="#ffbc00"/>
            <path id="Path_59" data-name="Path 59" d="M694.877,392.371a12.453,12.453,0,0,1,10.13-2.2l.506.552s-4.877-1.17-11.245,2.665Z" transform="translate(-661.151 -372.952)" fill="#fff8f0"/>
            <circle id="Ellipse_22" data-name="Ellipse 22" cx="3.776" cy="3.776" r="3.776" transform="translate(34.571 21.151)" fill="#fff276" opacity="0.24"/>
            <path id="Path_60" data-name="Path 60" d="M632.148,598.845a6.729,6.729,0,0,1-4.981-12.5c5.161-2,9.479-.669,10.85,2.788S636.785,597,632.148,598.845Z" transform="translate(-593.704 -557.8)" fill="#fff8ed"/>
            <circle id="Ellipse_23" data-name="Ellipse 23" cx="5.237" cy="5.237" r="5.237" transform="translate(30.074 29.814)" fill="#ffbc00"/>
            <path id="Path_61" data-name="Path 61" d="M726.319,589.1a12.453,12.453,0,0,1,8.718,5.611l-.033.743s-2.622-4.275-9.835-6.067Z" transform="translate(-690.366 -561.29)" fill="#fff"/>
            <path id="Path_62" data-name="Path 62" d="M538.755,606.1s-7.414-7.015-5.651-14.022,4.168-.088,2.643.954-.953,3.867-.093,5.576,2.46,3.895,3.637,4.019S543.119,607.876,538.755,606.1Z" transform="translate(-508.529 -561.18)" fill="#351207"/>
            <path id="Path_63" data-name="Path 63" d="M566.92,647.52s-7.266-4.453-7.032-10.481,3.389-.79,2.323.324-.112,3.323.884,4.572,2.68,2.757,3.663,2.656S570.791,648.218,566.92,647.52Z" transform="translate(-534.102 -603.921)" fill="#4a190a"/>
            <path id="Path_64" data-name="Path 64" d="M535.161,721.89s-5.637-4.647-3.449-8.544,3.562.287,2.161.765-1.19,2.152-.626,3.208,1.717,2.446,2.709,2.613S538.708,723.267,535.161,721.89Z" transform="translate(-506.992 -677.201)" fill="#6b240e"/>
            <path id="Path_65" data-name="Path 65" d="M608.841,642.391s-6.066-6.062-4.423-11.906,3.5.021,2.2.861-.889,3.226-.208,4.682,1.976,3.327,2.963,3.459S612.464,643.981,608.841,642.391Z" transform="translate(-575.94 -597.997)" fill="#6b240e"/>
            <path id="Path_66" data-name="Path 66" d="M238.1,519.175s.651-1.109-1.089-.762-1.085,1.029-1.085,1.029.409-1.6-.657-.681a3.619,3.619,0,0,0-1.034,2.546s-.532-1.942-1.935-.414a1.766,1.766,0,0,0-.05,2.677s-.417,1.041-.87,1.069,0,1.23,0,1.23l-.2,1.078s.2,1.3,1.185,1.452-1.743.347-1.648,1.036,1.61.97,1.61.97-1.418.408-.045,1.446a4.011,4.011,0,0,0,3.136.583l-.7.765s1.137,1.107,1.521.842.617.9,1.245,1.127,1.394-.861,1.394-.861,1.421,1.383,2.307,1.435,1.052-1.228,1.052-1.228.487.171,1.276-.465,1.772.465,2.039-1.454-1.016-1.041-1.016-1.041,1.758.353,1.678-.514-1.617-1.417-1.617-1.417,2.02.112,1.405-1.347a2.23,2.23,0,0,0-1.743-1.521s.151-.595.245-1.079-1.313-1.009-1.313-1.009.332.492-.291-.77a3.582,3.582,0,0,0-2.116-1.652s.849-.961.322-1.729-2.183-.295-2.183-.295S240.936,518.359,238.1,519.175Z" transform="translate(-222.894 -494.4)" fill="#009c08"/>
            <path id="Path_67" data-name="Path 67" d="M308.238,512.528a.576.576,0,0,1-.411.705h0a.577.577,0,0,1-.705-.412l-.44-1.673a.576.576,0,0,1,.412-.7h0a.577.577,0,0,1,.705.411Z" transform="translate(-294.704 -486.912)" fill="#00c40a"/>
            <path id="Path_68" data-name="Path 68" d="M343.269,530.249c-.086.145-.378.13-.651-.033h0c-.273-.164-.426-.414-.339-.558l.47-.788c.086-.145.379-.13.651.034h0c.279.163.426.414.339.557Z" transform="translate(-328.353 -504.256)" fill="#00c40a"/>
            <path id="Path_69" data-name="Path 69" d="M298.31,544.054a.518.518,0,0,1,.167.691h0c-.121.3-.39.465-.6.377l-1.155-.474a.516.516,0,0,1-.167-.692h0c.12-.3.39-.465.6-.377Z" transform="translate(-285.079 -518.236)" fill="#1cff28"/>
            <path id="Path_70" data-name="Path 70" d="M216.421,648.937a.578.578,0,0,1,.249.778h0a.576.576,0,0,1-.777.249l-1.54-.791a.577.577,0,0,1-.25-.777h0a.577.577,0,0,1,.777-.25Z" transform="translate(-207.136 -617.055)" fill="#00c40a"/>
            <path id="Path_71" data-name="Path 71" d="M255.7,631.492c.05.162-.156.372-.465.465h0c-.3.093-.591.041-.641-.121l-.272-.875c-.05-.162.156-.372.465-.465h0c.3-.093.592-.04.642.121Z" transform="translate(-245.213 -600.386)" fill="#00c40a"/>
            <path id="Path_72" data-name="Path 72" d="M233.648,669.842c.207-.1.487.051.626.337h0a.516.516,0,0,1-.123.7l-1.123.544c-.206.1-.487-.05-.625-.337h0a.517.517,0,0,1,.122-.7Z" transform="translate(-224.416 -637.599)" fill="#1cff28"/>
            <path id="Path_73" data-name="Path 73" d="M300.048,673.75a.577.577,0,0,1-.412.705h0a.578.578,0,0,1-.705-.412l-.439-1.673a.576.576,0,0,1,.411-.7h0a.578.578,0,0,1,.705.411Z" transform="translate(-286.96 -639.334)" fill="#00c40a"/>
            <path id="Path_74" data-name="Path 74" d="M335.077,691.482c-.086.145-.378.13-.651-.033h0c-.273-.164-.425-.414-.338-.558l.47-.787c.086-.145.378-.13.651.032h0c.274.164.426.414.339.558Z" transform="translate(-320.609 -656.689)" fill="#00c40a"/>
            <path id="Path_75" data-name="Path 75" d="M290.143,705.323a.516.516,0,0,1,.167.691h0c-.121.295-.39.465-.6.377l-1.155-.472a.517.517,0,0,1-.167-.691h0c.121-.295.39-.465.6-.377Z" transform="translate(-277.358 -670.704)" fill="#1cff28"/>
            <path id="Path_76" data-name="Path 76" d="M287.059,567.288a.578.578,0,0,1-.411.705h0a.577.577,0,0,1-.705-.412l-.44-1.673a.578.578,0,0,1,.412-.705h0a.576.576,0,0,1,.7.412Z" transform="translate(-274.68 -538.683)" fill="#00c40a"/>
            <path id="Path_77" data-name="Path 77" d="M322.087,585.021c-.086.145-.379.13-.65-.033h0c-.274-.164-.426-.414-.339-.558l.47-.788c.086-.145.378-.13.651.033h0c.279.164.426.414.339.558Z" transform="translate(-308.327 -556.038)" fill="#00c40a"/>
            <path id="Path_78" data-name="Path 78" d="M277.131,598.875a.517.517,0,0,1,.167.691h0c-.121.3-.391.465-.6.377l-1.156-.471a.517.517,0,0,1-.166-.691h0c.12-.3.39-.465.6-.377Z" transform="translate(-265.056 -570.067)" fill="#1cff28"/>
            <path id="Path_79" data-name="Path 79" d="M431.515,579.551a.578.578,0,0,1-.811.093h0a.576.576,0,0,1-.093-.81l1.071-1.361a.577.577,0,0,1,.81-.093h0a.577.577,0,0,1,.093.81Z" transform="translate(-411.768 -550.095)" fill="#00c40a"/>
            <path id="Path_80" data-name="Path 80" d="M452.613,621.977c-.168.019-.332-.223-.366-.54h0c-.035-.317.073-.589.241-.607l.913-.1c.167-.019.332.223.366.54h0c.034.317-.073.589-.241.607Z" transform="translate(-432.335 -591.196)" fill="#00c40a"/>
            <path id="Path_81" data-name="Path 81" d="M417.971,591.1c.059.222-.143.465-.451.55h0a.517.517,0,0,1-.664-.255l-.321-1.208c-.059-.221.143-.465.452-.549h0a.517.517,0,0,1,.665.254Z" transform="translate(-398.569 -561.76)" fill="#1cff28"/>
            <path id="Path_82" data-name="Path 82" d="M394.137,671.581a.577.577,0,0,1-.8.171h0a.577.577,0,0,1-.17-.8l.941-1.454a.577.577,0,0,1,.8-.17h0a.576.576,0,0,1,.171.8Z" transform="translate(-376.4 -637.055)" fill="#00c40a"/>
            <path id="Path_83" data-name="Path 83" d="M416.9,712.639c-.165.033-.351-.192-.414-.5h0c-.064-.312.019-.593.186-.627l.9-.186c.165-.033.351.192.414.5h0c.064.312-.019.593-.186.626Z" transform="translate(-398.513 -676.839)" fill="#00c40a"/>
            <path id="Path_84" data-name="Path 84" d="M379.488,685.924c.08.216-.1.48-.4.59h0a.519.519,0,0,1-.686-.192l-.429-1.171c-.079-.216.1-.479.4-.589h0a.517.517,0,0,1,.685.191Z" transform="translate(-362.106 -651.487)" fill="#1cff28"/>
            <path id="Path_85" data-name="Path 85" d="M410.94,759.561a.577.577,0,0,1-.411.705h0a.577.577,0,0,1-.705-.412l-.44-1.673a.577.577,0,0,1,.412-.7h0a.578.578,0,0,1,.705.411Z" transform="translate(-391.8 -720.461)" fill="#00c40a"/>
            <path id="Path_86" data-name="Path 86" d="M445.968,777.293c-.086.145-.378.13-.651-.034h0c-.274-.164-.426-.413-.339-.557l.47-.787c.086-.145.379-.13.651.033h0c.279.164.426.413.339.558Z" transform="translate(-425.446 -737.816)" fill="#00c40a"/>
            <path id="Path_87" data-name="Path 87" d="M401.01,791.134a.517.517,0,0,1,.167.691h0c-.121.294-.39.465-.6.377l-1.155-.472a.516.516,0,0,1-.167-.691h0c.12-.295.39-.465.6-.377Z" transform="translate(-382.174 -751.831)" fill="#1cff28"/>
            <path id="Path_88" data-name="Path 88" d="M335.605,744.551a.576.576,0,0,1-.807.124h0a.576.576,0,0,1-.124-.807l1.022-1.394a.577.577,0,0,1,.807-.123h0a.577.577,0,0,1,.124.807Z" transform="translate(-321.081 -706.072)" fill="#00c40a"/>
            <path id="Path_89" data-name="Path 89" d="M357.362,786.531c-.167.024-.34-.213-.385-.528h0c-.046-.316.053-.591.22-.615l.908-.13c.167-.024.34.212.385.528h0c.046.315-.053.591-.22.614Z" transform="translate(-342.262 -746.742)" fill="#00c40a"/>
            <path id="Path_90" data-name="Path 90" d="M321.721,757.107c.067.219-.126.473-.432.565h0a.517.517,0,0,1-.673-.232l-.361-1.194c-.066-.22.127-.473.432-.565h0a.516.516,0,0,1,.673.231Z" transform="translate(-307.542 -718.737)" fill="#1cff28"/>
            <path id="Path_91" data-name="Path 91" d="M226.005,755.737a.577.577,0,0,1,.618.533h0a.577.577,0,0,1-.533.618l-1.727.126a.577.577,0,0,1-.618-.533h0a.576.576,0,0,1,.533-.617Z" transform="translate(-216.31 -718.832)" fill="#00c40a"/>
            <path id="Path_92" data-name="Path 92" d="M250.352,720.829c.126.111.059.4-.152.635h0c-.211.24-.484.343-.611.232l-.689-.606c-.127-.111-.059-.4.151-.636h0c.211-.239.484-.343.611-.231Z" transform="translate(-240.033 -685.215)" fill="#00c40a"/>
            <path id="Path_93" data-name="Path 93" d="M255.425,759.133a.517.517,0,0,1,.71-.038h0a.517.517,0,0,1,.261.662l-.675,1.05a.517.517,0,0,1-.71.038h0a.518.518,0,0,1-.265-.663Z" transform="translate(-245.586 -721.892)" fill="#1cff28"/>
            <path id="Path_94" data-name="Path 94" d="M465.988,650.767a.578.578,0,0,1-.816.023h0a.578.578,0,0,1-.023-.816l1.19-1.258a.576.576,0,0,1,.816-.023h0a.578.578,0,0,1,.023.816Z" transform="translate(-444.391 -617.483)" fill="#00c40a"/>
            <path id="Path_95" data-name="Path 95" d="M485.264,694.263c-.169,0-.31-.252-.317-.571h0c-.006-.319.126-.58.3-.583l.917-.018c.168,0,.31.253.316.572h0c.006.319-.126.58-.295.583Z" transform="translate(-463.256 -659.608)" fill="#00c40a"/>
            <path id="Path_96" data-name="Path 96" d="M453.723,659.741c.039.227-.186.453-.5.507h0c-.314.054-.6-.086-.638-.312l-.211-1.23c-.038-.227.186-.453.5-.507h0c.314-.053.6.086.639.313Z" transform="translate(-432.458 -626.609)" fill="#1cff28"/>
            <path id="Path_97" data-name="Path 97" d="M467.311,722.785a.577.577,0,0,1-.412.705h0a.578.578,0,0,1-.705-.412l-.44-1.673a.576.576,0,0,1,.411-.7h0a.578.578,0,0,1,.705.411Z" transform="translate(-445.093 -685.693)" fill="#00c40a"/>
            <path id="Path_98" data-name="Path 98" d="M502.333,740.568c-.086.145-.378.13-.651-.034h0c-.273-.164-.426-.414-.338-.557l.47-.787c.086-.145.378-.13.651.032h0c.279.164.426.414.339.558Z" transform="translate(-478.736 -703.095)" fill="#00c40a"/>
            <path id="Path_99" data-name="Path 99" d="M457.366,754.358a.516.516,0,0,1,.167.691h0c-.121.295-.39.465-.6.377l-1.155-.472a.516.516,0,0,1-.167-.691h0c.121-.294.39-.465.6-.377Z" transform="translate(-435.454 -717.062)" fill="#1cff28"/>
            <path id="Path_100" data-name="Path 100" d="M338.746,619.826a.576.576,0,0,1-.752.315h0a.577.577,0,0,1-.316-.753l.655-1.6a.578.578,0,0,1,.753-.316h0a.577.577,0,0,1,.316.753Z" transform="translate(-323.985 -588.074)" fill="#00c40a"/>
            <path id="Path_101" data-name="Path 101" d="M364.069,657.366c-.156.064-.38-.124-.5-.418h0c-.121-.3-.093-.586.065-.651l.849-.347c.156-.063.381.125.5.419h0c.121.3.093.586-.065.651Z" transform="translate(-348.432 -624.483)" fill="#00c40a"/>
            <path id="Path_102" data-name="Path 102" d="M322.364,639.395a.519.519,0,0,1-.279.651h0a.518.518,0,0,1-.709-.062l-.639-1.072a.515.515,0,0,1,.279-.651h0a.518.518,0,0,1,.709.061Z" transform="translate(-307.967 -607.664)" fill="#1cff28"/>
            <path id="Path_103" data-name="Path 103" d="M367.565,552.6a.577.577,0,0,1-.815-.044h0a.577.577,0,0,1,.044-.815l1.288-1.158a.577.577,0,0,1,.815.044h0a.577.577,0,0,1-.044.815Z" transform="translate(-351.371 -524.734)" fill="#00c40a"/>
            <path id="Path_104" data-name="Path 104" d="M384.982,595.761c-.168-.01-.289-.279-.269-.595h0c.02-.319.173-.568.341-.558l.916.058c.168.01.289.279.269.595h0c-.021.319-.173.568-.342.558Z" transform="translate(-368.492 -566.5)" fill="#00c40a"/>
            <path id="Path_105" data-name="Path 105" d="M356.57,558.931c.02.229-.221.437-.539.465h0c-.318.028-.591-.135-.611-.363l-.109-1.243c-.02-.229.221-.437.538-.465h0c.318-.028.592.135.611.364Z" transform="translate(-340.695 -531.248)" fill="#1cff28"/>
            <path id="Path_106" data-name="Path 106" d="M325.067,650.81s-.616,1,.975.715,1.008-.914,1.008-.914-.4,1.448.584.633a3.293,3.293,0,0,0,.993-2.294s.444,1.777,1.751.415a1.6,1.6,0,0,0,.1-2.432s.4-.939.812-.954.029-1.115.029-1.115l.2-.98s-.151-1.182-1.047-1.343,1.591-.279,1.519-.909-1.444-.915-1.444-.915,1.3-.342.07-1.314a3.653,3.653,0,0,0-2.84-.593l.651-.681s-1.011-1.029-1.366-.8-.543-.829-1.11-1.049-1.281.755-1.281.755-1.265-1.286-2.069-1.352-.981,1.1-.981,1.1-.439-.166-1.17.4-1.6-.465-1.883,1.281.9.967.9.967-1.591-.357-1.536.433,1.441,1.321,1.441,1.321-1.837-.139-1.3,1.2a2.025,2.025,0,0,0,1.556,1.415s-.149.539-.245.977,1.175.944,1.175.944-.291-.454.249.706a3.252,3.252,0,0,0,1.888,1.544s-.793.857-.327,1.567,1.979.311,1.979.311S322.471,651.494,325.067,650.81Z" transform="translate(-305.36 -605.332)" fill="#009c08"/>
            <path id="Path_107" data-name="Path 107" d="M476.478,888.236a.526.526,0,0,1,.388-.633h0a.526.526,0,0,1,.633.388l.366,1.532a.525.525,0,0,1-.388.633h0a.526.526,0,0,1-.633-.388Z" transform="translate(-455.236 -843.489)" fill="#00c40a"/>
            <path id="Path_108" data-name="Path 108" d="M445.8,891.161c.082-.13.347-.111.592.044h0c.246.154.379.385.3.515l-.443.706c-.082.13-.347.111-.593-.043h0c-.245-.154-.378-.385-.3-.515Z" transform="translate(-425.803 -846.785)" fill="#00c40a"/>
            <path id="Path_109" data-name="Path 109" d="M478.23,879.1a.465.465,0,0,1-.138-.632h0c.115-.266.364-.414.558-.331l1.041.452a.469.469,0,0,1,.139.632h0c-.115.267-.364.414-.558.331Z" transform="translate(-456.709 -834.529)" fill="#1cff28"/>
            <path id="Path_110" data-name="Path 110" d="M545.181,779.558a.525.525,0,0,1-.211-.712h0a.524.524,0,0,1,.711-.211l1.385.75a.525.525,0,0,1,.211.712h0a.524.524,0,0,1-.711.211Z" transform="translate(-519.943 -740.422)" fill="#00c40a"/>
            <path id="Path_111" data-name="Path 111" d="M529.407,801.344c-.042-.148.15-.333.428-.413h0c.279-.08.539-.024.581.124l.231.8c.042.148-.15.332-.428.412h0c-.279.08-.539.025-.581-.123Z" transform="translate(-505.285 -761.527)" fill="#00c40a"/>
            <path id="Path_112" data-name="Path 112" d="M539.95,765.481c-.186.087-.441-.056-.557-.32h0a.469.469,0,0,1,.125-.635l1.032-.472c.186-.087.441.056.562.32h0a.469.469,0,0,1-.125.635Z" transform="translate(-514.662 -726.673)" fill="#1cff28"/>
            <path id="Path_113" data-name="Path 113" d="M487.217,741.813a.525.525,0,0,1,.387-.633h0a.526.526,0,0,1,.633.388l.367,1.531a.526.526,0,0,1-.388.633h0a.526.526,0,0,1-.633-.389Z" transform="translate(-465.389 -705.058)" fill="#00c40a"/>
            <path id="Path_114" data-name="Path 114" d="M456.508,744.738c.082-.13.347-.111.592.044h0c.246.154.379.385.3.515l-.443.706c-.082.13-.347.111-.593-.043h0c-.245-.154-.378-.385-.3-.515Z" transform="translate(-435.928 -708.354)" fill="#00c40a"/>
            <path id="Path_115" data-name="Path 115" d="M489.007,732.681a.465.465,0,0,1-.138-.632h0c.115-.266.364-.414.558-.331l1.042.452a.471.471,0,0,1,.138.633h0c-.115.266-.364.414-.558.331Z" transform="translate(-466.898 -696.104)" fill="#1cff28"/>
            <path id="Path_116" data-name="Path 116" d="M496.9,838.858a.525.525,0,0,1,.388-.633h0a.525.525,0,0,1,.633.388l.367,1.531a.526.526,0,0,1-.388.633h0a.526.526,0,0,1-.633-.388Z" transform="translate(-474.548 -796.805)" fill="#00c40a"/>
            <path id="Path_117" data-name="Path 117" d="M466.162,841.8c.082-.13.347-.112.593.043h0c.245.154.378.385.3.515l-.443.706c-.082.13-.347.111-.592-.043h0c-.246-.154-.379-.385-.3-.515Z" transform="translate(-445.055 -800.114)" fill="#00c40a"/>
            <path id="Path_118" data-name="Path 118" d="M498.695,829.728a.47.47,0,0,1-.139-.632h0c.116-.266.364-.414.558-.331l1.041.453a.47.47,0,0,1,.138.632h0c-.115.266-.364.414-.558.331Z" transform="translate(-476.059 -787.855)" fill="#1cff28"/>
            <path id="Path_119" data-name="Path 119" d="M355.21,829.837a.526.526,0,0,1,.743-.072h0a.525.525,0,0,1,.071.743l-1.006,1.211a.525.525,0,0,1-.739.072h0a.525.525,0,0,1-.071-.744Z" transform="translate(-339.538 -788.707)" fill="#00c40a"/>
            <path id="Path_120" data-name="Path 120" d="M347.868,810.834c.152-.013.3.21.322.5h0c.025.289-.079.534-.232.547l-.831.072c-.153.013-.3-.21-.322-.5h0c-.025-.288.079-.533.231-.546Z" transform="translate(-332.651 -770.923)" fill="#00c40a"/>
            <path id="Path_121" data-name="Path 121" d="M380.275,826.256c-.049-.2.139-.423.421-.491h0a.471.471,0,0,1,.6.244l.266,1.1c.049.2-.139.423-.421.491h0a.469.469,0,0,1-.6-.244Z" transform="translate(-364.291 -785.01)" fill="#1cff28"/>
            <path id="Path_122" data-name="Path 122" d="M393.145,745.5a.526.526,0,0,1,.729-.139h0a.526.526,0,0,1,.139.73l-.885,1.3a.526.526,0,0,1-.729.139h0a.526.526,0,0,1-.139-.729Z" transform="translate(-375.543 -708.939)" fill="#00c40a"/>
            <path id="Path_123" data-name="Path 123" d="M382.049,727.972c.151-.027.315.186.367.465h0c.051.285-.03.538-.18.566l-.822.148c-.151.028-.315-.186-.367-.465h0c-.051-.285.03-.539.18-.566Z" transform="translate(-365.014 -692.583)" fill="#00c40a"/>
            <path id="Path_124" data-name="Path 124" d="M415.665,741.069c-.068-.2.1-.434.372-.528h0a.471.471,0,0,1,.62.186l.367,1.074c.067.2-.1.434-.372.528h0a.47.47,0,0,1-.619-.186Z" transform="translate(-397.742 -704.42)" fill="#1cff28"/>
            <path id="Path_125" data-name="Path 125" d="M388.11,661.553a.525.525,0,0,1,.388-.633h0a.525.525,0,0,1,.632.388l.364,1.532a.526.526,0,0,1-.388.633h0a.526.526,0,0,1-.633-.388Z" transform="translate(-371.691 -629.179)" fill="#00c40a"/>
            <path id="Path_126" data-name="Path 126" d="M357.4,664.488c.082-.13.347-.111.593.043h0c.245.154.378.385.3.515l-.443.706c-.082.13-.347.112-.592-.043h0c-.246-.154-.379-.385-.3-.515Z" transform="translate(-342.23 -632.484)" fill="#00c40a"/>
            <path id="Path_127" data-name="Path 127" d="M389.933,652.42a.47.47,0,0,1-.138-.632h0c.116-.266.364-.414.558-.331l1.041.453a.47.47,0,0,1,.138.632h0c-.115.266-.364.414-.558.331Z" transform="translate(-373.234 -620.225)" fill="#1cff28"/>
            <path id="Path_128" data-name="Path 128" d="M446.514,681.3a.525.525,0,0,1,.736-.093h0a.525.525,0,0,1,.093.736l-.959,1.249a.525.525,0,0,1-.736.093h0a.525.525,0,0,1-.093-.736Z" transform="translate(-425.91 -648.272)" fill="#00c40a"/>
            <path id="Path_129" data-name="Path 129" d="M437.754,662.767c.152-.019.3.2.339.488h0c.034.287-.061.535-.214.557l-.828.1c-.152.019-.3-.2-.339-.488h0c-.034-.287.06-.535.213-.558Z" transform="translate(-417.648 -630.937)" fill="#00c40a"/>
            <path id="Path_130" data-name="Path 130" d="M470.627,677.329c-.056-.2.125-.428.4-.5h0a.465.465,0,0,1,.607.224l.3,1.093c.056.2-.125.427-.4.506h0a.47.47,0,0,1-.607-.224Z" transform="translate(-449.708 -644.191)" fill="#1cff28"/>
            <path id="Path_131" data-name="Path 131" d="M535.272,693.256a.525.525,0,0,1-.551-.5h0a.524.524,0,0,1,.5-.551l1.572-.081a.525.525,0,0,1,.551.5h0a.524.524,0,0,1-.5.55Z" transform="translate(-510.313 -658.695)" fill="#00c40a"/>
            <path id="Path_132" data-name="Path 132" d="M533.092,719.924c-.112-.1-.046-.362.152-.574h0c.2-.214.447-.3.558-.2l.614.565c.112.1.046.361-.152.574h0c-.2.214-.447.3-.557.2Z" transform="translate(-508.722 -684.204)" fill="#00c40a"/>
            <path id="Path_133" data-name="Path 133" d="M526.822,678.3a.471.471,0,0,1-.651.02h0a.471.471,0,0,1-.223-.608l.635-.94a.469.469,0,0,1,.646-.02h0a.47.47,0,0,1,.224.608Z" transform="translate(-501.984 -644.044)" fill="#1cff28"/>
            <path id="Path_134" data-name="Path 134" d="M323.419,766.019a.524.524,0,0,1,.743,0h0a.524.524,0,0,1,0,.743l-1.106,1.121a.526.526,0,0,1-.743,0h0a.525.525,0,0,1,0-.743Z" transform="translate(-309.352 -728.407)" fill="#00c40a"/>
            <path id="Path_135" data-name="Path 135" d="M319.653,745.736c.153,0,.279.236.279.526h0c0,.289-.126.524-.279.523h-.836c-.153,0-.279-.236-.279-.526h0c0-.29.126-.524.279-.523Z" transform="translate(-305.931 -709.379)" fill="#00c40a"/>
            <path id="Path_136" data-name="Path 136" d="M350.682,763.434c-.031-.206.178-.408.465-.451h0c.287-.043.545.093.575.3l.166,1.123c.031.206-.177.408-.465.451h0c-.287.043-.545-.093-.575-.3Z" transform="translate(-336.318 -725.677)" fill="#1cff28"/>
            <path id="Path_137" data-name="Path 137" d="M336.116,693.861a.525.525,0,0,1,.388-.632h0a.524.524,0,0,1,.633.388l.366,1.532a.524.524,0,0,1-.388.633h0a.524.524,0,0,1-.633-.389Z" transform="translate(-322.536 -659.724)" fill="#00c40a"/>
            <path id="Path_138" data-name="Path 138" d="M305.42,696.792c.082-.13.347-.111.592.043h0c.246.154.379.385.3.515l-.443.706c-.082.13-.348.112-.593-.043h0c-.245-.154-.378-.385-.3-.515Z" transform="translate(-293.087 -663.025)" fill="#00c40a"/>
            <path id="Path_139" data-name="Path 139" d="M337.946,684.719a.471.471,0,0,1-.138-.633h0c.115-.266.364-.414.558-.331l1.041.453a.465.465,0,0,1,.138.632h0c-.115.266-.364.414-.558.331Z" transform="translate(-324.085 -650.76)" fill="#1cff28"/>
            <path id="Path_140" data-name="Path 140" d="M447.039,791.352a.525.525,0,0,1,.691-.271h0a.524.524,0,0,1,.271.69l-.624,1.44a.524.524,0,0,1-.69.271h0a.525.525,0,0,1-.272-.69Z" transform="translate(-426.787 -752.206)" fill="#00c40a"/>
            <path id="Path_141" data-name="Path 141" d="M428.572,777.434c.143-.055.344.12.447.391h0c.1.271.071.534-.072.589l-.78.3c-.143.055-.343-.121-.447-.391h0c-.1-.27-.071-.534.072-.589Z" transform="translate(-409.096 -739.338)" fill="#00c40a"/>
            <path id="Path_142" data-name="Path 142" d="M464.034,785.421c-.1-.186.018-.445.27-.588h0a.469.469,0,0,1,.643.071l.558.987c.1.186-.018.445-.27.587h0a.469.469,0,0,1-.643-.07Z" transform="translate(-443.45 -746.251)" fill="#1cff28"/>
            <path id="Path_143" data-name="Path 143" d="M409.412,858.845a.525.525,0,0,1,.743.056h0a.524.524,0,0,1-.056.743l-1.194,1.022a.523.523,0,0,1-.743-.056h0a.524.524,0,0,1,.056-.744Z" transform="translate(-390.541 -816.193)" fill="#00c40a"/>
            <path id="Path_144" data-name="Path 144" d="M408.842,836.427c.153.013.257.257.233.546h0c-.025.289-.169.512-.322.5l-.831-.071c-.153-.013-.257-.257-.232-.546h0c.024-.289.168-.513.322-.5Z" transform="translate(-390.213 -795.052)" fill="#00c40a"/>
            <path id="Path_145" data-name="Path 145" d="M438.543,856.994c-.014-.208.209-.393.5-.412h0c.289-.019.534.135.548.343l.074,1.133c.013.208-.21.392-.5.412h0c-.29.019-.535-.135-.549-.343Z" transform="translate(-419.385 -814.174)" fill="#1cff28"/>
            <path id="Path_146" data-name="Path 146" d="M512.037,483.531l-.836.557a.755.755,0,0,0,.084,1.3l.023.012a.756.756,0,0,0,1.091-.72l-.058-1a.2.2,0,0,0-.3-.147Z" transform="translate(-487.762 -461.455)" fill="#fff"/>
            <path id="Path_147" data-name="Path 147" d="M502.45,546.48l-.836.558a.756.756,0,0,0,.084,1.3l.024.012a.755.755,0,0,0,1.09-.719l-.058-1a.2.2,0,0,0-.3-.147Z" transform="translate(-478.699 -520.968)" fill="#fff"/>
            <path id="Path_148" data-name="Path 148" d="M600.949,527.513l-.267.969a.755.755,0,0,0,.915.929l.026-.007a.755.755,0,0,0,.354-1.257l-.7-.722a.2.2,0,0,0-.329.087Z" transform="translate(-572.65 -502.929)" fill="#fff"/>
            <path id="Path_149" data-name="Path 149" d="M486.714,493.592l-.447.9a.755.755,0,0,0,.721,1.089h.026a.755.755,0,0,0,.588-1.166l-.549-.843a.2.2,0,0,0-.339.019Z" transform="translate(-464.431 -470.896)" fill="#fff"/>
            <path id="Path_150" data-name="Path 150" d="M519.228,459.72l-.7-.726a.754.754,0,0,0-1.269.308l-.007.025a.755.755,0,0,0,.9.95l.979-.23a.2.2,0,0,0,.1-.326Z" transform="translate(-493.772 -438.068)" fill="#fff"/>
            <path id="Path_151" data-name="Path 151" d="M561.521,553.091l.992-.165a.756.756,0,0,0,.465-1.222l-.017-.02a.756.756,0,0,0-1.29.205l-.362.938a.2.2,0,0,0,.212.264Z" transform="translate(-535.438 -525.655)" fill="#fff"/>
            <path id="Path_152" data-name="Path 152" d="M583.648,484.325l.446.9a.755.755,0,0,0,1.3.088l.015-.021a.756.756,0,0,0-.571-1.176l-1.005-.074a.2.2,0,0,0-.186.282Z" transform="translate(-556.551 -461.97)" fill="#fff"/>
            <path id="Path_153" data-name="Path 153" d="M538.035,510.211l-.836.558a.755.755,0,0,0,.084,1.3l.023.012a.756.756,0,0,0,1.091-.72l-.058-1a.2.2,0,0,0-.3-.147Z" transform="translate(-512.341 -486.678)" fill="#fff"/>
            <path id="Path_154" data-name="Path 154" d="M552.592,454.343l-.836.557a.755.755,0,0,0,.084,1.3l.023.011a.756.756,0,0,0,1.091-.719l-.058-1a.2.2,0,0,0-.3-.146Z" transform="translate(-526.104 -433.861)" fill="#fff"/>
            <circle id="Ellipse_24" data-name="Ellipse 24" cx="3.776" cy="3.776" r="3.776" transform="translate(31.406 31.432)" fill="#fff276" opacity="0.24"/>
          </g>
        </g>
      </g>
    </g>
  </g>
</svg>
