<svg xmlns="http://www.w3.org/2000/svg" xmlns:xlink="http://www.w3.org/1999/xlink" width="1000" height="1000" viewBox="0 0 1000 1000">
  <defs>
    <clipPath id="clip-website">
      <rect width="1000" height="1000"/>
    </clipPath>
  </defs>
  <g id="website" clip-path="url(#clip-website)">
    <rect width="1000" height="1000" fill="#d6e1e5"/>
    <g id="web-browser" transform="translate(217.212 217.219)">
      <path id="Path_32" data-name="Path 32" d="M517.562,76.117,463.391,50.16,38.09,57.813V515.984h440A37.409,37.409,0,0,0,515.51,478.8l2.052-312.738Z" transform="translate(5.341 7.033)" fill="#f9f7f8"/>
      <path id="Path_33" data-name="Path 33" d="M51.31,488.619V76.5h.343l-.241-.114L76.5,58.142l394.092-7.091-1.857-.891L25.187,58.142.1,76.385l.241.114H0v412.12a27.372,27.372,0,0,0,27.365,27.365h51.31A27.372,27.372,0,0,1,51.31,488.619Z" transform="translate(0 7.033)" fill="#efedef"/>
      <path id="Path_34" data-name="Path 34" d="M490.758.1H34.09V83.518H518.123V27.465A27.372,27.372,0,0,0,490.758.1Z" transform="translate(4.78 0.014)" fill="#ee6161"/>
      <path id="Path_35" data-name="Path 35" d="M78.675.1H27.365A27.372,27.372,0,0,0,0,27.465V83.518H51.31V27.465A27.372,27.372,0,0,1,78.675.1Z" transform="translate(0 0.014)" fill="#e94444"/>
      <path id="Path_36" data-name="Path 36" d="M423.234,135.049H72.633a10.394,10.394,0,0,0-10.394,10.394V252.088a10.394,10.394,0,0,0,10.394,10.394H435.49l-.229-115.43a12.028,12.028,0,0,0-12.027-12Z" transform="translate(8.727 18.936)" fill="#e5e1e5"/>
      <g id="Group_9" data-name="Group 9" transform="translate(35.301 32.839)">
        <path id="Path_37" data-name="Path 37" d="M45.933,45.9H39.512a8.552,8.552,0,1,1,0-17.1h6.422a8.552,8.552,0,1,1,0,17.1Z" transform="translate(-30.96 -28.801)" fill="#d83131"/>
      </g>
      <g id="Group_10" data-name="Group 10" transform="translate(94.782 32.839)">
        <path id="Path_38" data-name="Path 38" d="M98.1,45.9H91.678a8.552,8.552,0,1,1,0-17.1H98.1a8.552,8.552,0,1,1,0,17.1Z" transform="translate(-83.126 -28.801)" fill="#00f2a6"/>
      </g>
      <g id="Group_11" data-name="Group 11" transform="translate(154.262 32.839)">
        <path id="Path_39" data-name="Path 39" d="M150.265,45.9h-6.422a8.552,8.552,0,1,1,0-17.1h6.422a8.552,8.552,0,1,1,0,17.1Z" transform="translate(-135.292 -28.801)" fill="#fedf30"/>
      </g>
      <path id="Path_40" data-name="Path 40" d="M535.047,252.525l-22.8-27.365H218.256V534.09h285.3a31.62,31.62,0,0,0,31.618-31.63V252.525Z" transform="translate(30.603 31.571)" fill="#f9f7f8"/>
      <path id="Path_41" data-name="Path 41" d="M231.118,502.461V252.525h.342l22.8-27.365H210.936l-22.8,27.365h-.342V502.461a31.63,31.63,0,0,0,31.63,31.63h43.328A31.63,31.63,0,0,1,231.118,502.461Z" transform="translate(26.331 31.571)" fill="#efedef"/>
      <path id="Path_42" data-name="Path 42" d="M504.083,181.81H215.677c-.4,0-.8.016-1.195.031V258.6H535.7V213.44a31.62,31.62,0,0,0-31.618-31.63Z" transform="translate(30.074 25.493)" fill="#ee6161"/>
      <path id="Path_43" data-name="Path 43" d="M262.748,181.81H219.42a31.63,31.63,0,0,0-31.63,31.63V258.6h43.328V213.44A31.63,31.63,0,0,1,262.748,181.81Z" transform="translate(26.331 25.493)" fill="#e94444"/>
      <path id="Path_44" data-name="Path 44" d="M457.261,373.94H255.816A17.514,17.514,0,0,1,238.3,356.426V320.121a17.514,17.514,0,0,1,17.514-17.514H457.261a17.514,17.514,0,0,1,17.514,17.514v36.306A17.514,17.514,0,0,1,457.261,373.94Z" transform="translate(33.414 42.43)" fill="#e5e1e5"/>
      <g id="Group_12" data-name="Group 12" transform="translate(62.414 326.223)">
        <path id="Path_45" data-name="Path 45" d="M150.437,303.209H63.291a8.552,8.552,0,0,1,0-17.1h87.147a8.552,8.552,0,0,1,0,17.1Z" transform="translate(-54.739 -286.106)" fill="#e5e1e5"/>
      </g>
      <g id="Group_13" data-name="Group 13" transform="translate(62.414 390.33)">
        <path id="Path_46" data-name="Path 46" d="M150.437,359.433H63.291a8.552,8.552,0,0,1,0-17.1h87.147a8.552,8.552,0,0,1,0,17.1Z" transform="translate(-54.739 -342.33)" fill="#e5e1e5"/>
      </g>
      <g id="Group_14" data-name="Group 14" transform="translate(263.164 481.664)">
        <path id="Path_47" data-name="Path 47" d="M475.828,439.535H239.354a8.552,8.552,0,1,1,0-17.1H475.828a8.552,8.552,0,0,1,0,17.1Z" transform="translate(-230.802 -422.432)" fill="#e5e1e5"/>
      </g>
      <path id="Path_48" data-name="Path 48" transform="translate(0)" fill="#f79595"/>
    </g>
  </g>
</svg>
